<?xml version="1.0" encoding="UTF-8"?>
<svg id="Layer_1" data-name="Layer 1" xmlns="http://www.w3.org/2000/svg" viewBox="0 0 400 400">
  <defs>
    <style>
      .cls-1, .cls-2 {
        fill: #3f778c;
      }

      .cls-1, .cls-2, .cls-3, .cls-4, .cls-5, .cls-6, .cls-7, .cls-8, .cls-9 {
        stroke: #3c1a53;
      }

      .cls-1, .cls-2, .cls-3, .cls-4, .cls-6, .cls-7, .cls-8, .cls-9 {
        stroke-linecap: round;
        stroke-linejoin: round;
      }

      .cls-1, .cls-4, .cls-7 {
        stroke-width: 5px;
      }

      .cls-2, .cls-3, .cls-6, .cls-9 {
        stroke-width: 4.1px;
      }

      .cls-3, .cls-10 {
        fill: #3c1a53;
      }

      .cls-4 {
        fill: #e8e3db;
      }

      .cls-5 {
        fill: #f57c75;
        stroke-miterlimit: 10;
        stroke-width: 6px;
      }

      .cls-6 {
        fill: #cc9a0e;
      }

      .cls-7, .cls-8, .cls-9 {
        fill: #cbdced;
      }

      .cls-8 {
        stroke-width: 4.33px;
      }

      .cls-11 {
        fill: #ac8423;
      }
    </style>
  </defs>
  <circle class="cls-5" cx="200" cy="200" r="176.14"/>
  <polygon class="cls-4" points="111.2 166.48 90.19 88.91 166.87 109.88 111.2 166.48"/>
  <path class="cls-6" d="M166.71,110.04l-.04.04c-5.13-3.12-11.91-2.48-16.34,1.96s-5.09,11.37-1.84,16.53l-.49.5c-5.15-3.26-12.04-2.66-16.53,1.83s-5.11,11.55-1.72,16.72l-.42.42c-5.17-3.39-12.18-2.83-16.72,1.71-4.6,4.6-5.12,11.72-1.59,16.9l-.03.03,122.74,122.74c9.05-5.9,19.93-14.86,30.82-25.75,10.87-10.87,19.82-21.74,25.73-30.78l-123.58-122.84Z"/>
  <path class="cls-3" d="M233.72,289.44l10,10c.13.13.27.25.4.38,9.05-5.9,19.92-14.86,30.81-25.74,10.88-10.88,19.84-21.76,25.74-30.81-.13-.13-.25-.27-.38-.4l-10.02-9.96c-5.9,9.04-14.85,19.91-25.73,30.78s-21.77,19.85-30.82,25.75Z"/>
  <path class="cls-10" d="M264.3,263.42h0s-.02.01-.02.02l.03-.02Z"/>
  <path class="cls-9" d="M274.92,274.07c-10.88,10.88-21.76,19.84-30.81,25.74,15.59,15.17,40.74,15.05,56.17-.38s15.55-40.58.38-56.17c-5.9,9.05-14.86,19.92-25.74,30.81Z"/>
  <path class="cls-10" d="M88.05,91.05l3.72,13.75c7.02,1.25,14.51-.84,19.94-6.26.26-.26.52-.53.77-.81l-24.43-6.68Z"/>
  <path class="cls-11" d="M215.36,165.09l-4.89-8.07c-5.13-3.12-3.98,2.3-8.42,6.74s-5.09,11.37-1.84,16.53l-5.56-5.76c-5.15-3.26-6.97,3.6-11.46,8.09s-4.92,1.14-1.53,6.31l-.61,10.83c-5.17-3.39-12.18-2.83-16.72,1.71-4.6,4.6-8.79-2.77-5.26,2.42l6.86,11.28,45,45c9.05-5.9,16.72-11.63,27.6-22.52,10.87-10.87,16.75-18.41,22.66-27.46l-45.84-45.11Z"/>
  <path class="cls-10" d="M149.79,127.26l-.22.23c-5.29-3.12-12.72-1.98-17.86,3.16-5.2,5.2-6.31,12.75-3.05,18.05l-.39.4,125.17,125.17c.13-.12.26-.24.38-.35.71-.65,1.42-1.3,2.14-1.97.28-.26.56-.52.84-.79.6-.56,1.21-1.13,1.81-1.71.3-.28.6-.57.9-.86.61-.59,1.23-1.18,1.85-1.78.27-.27.55-.53.82-.8.88-.86,1.76-1.73,2.64-2.6h0c.85-.85,1.68-1.69,2.51-2.54.27-.27.53-.54.79-.82.56-.57,1.11-1.15,1.66-1.72.31-.32.61-.64.92-.96.5-.52.99-1.05,1.49-1.57.31-.33.62-.67.93-1,.48-.52.96-1.03,1.43-1.55.2-.21.39-.43.59-.64l-125.35-125.35Z"/>
  <g>
    <path class="cls-2" d="M289.42,165.1c-8.83-5.9-19.27-14.57-29.72-25.02-9.38-9.38-17.33-18.75-23.12-26.96-2.04-2-3.23-3.17-3.23-3.17l-.03-.03-122.74,122.74c5.9,9.05,14.86,19.93,25.75,30.82,10.87,10.87,21.74,19.82,30.78,25.73l122.81-123.61c-.16-.16-.33-.33-.5-.49Z"/>
    <path class="cls-9" d="M110.56,232.65l-10,10c-.13.13-.25.27-.38.4,5.9,9.05,14.86,19.92,25.74,30.81,10.88,10.88,21.76,19.84,30.81,25.74.13-.13.27-.25.4-.38l9.96-10.02c-9.04-5.9-19.91-14.85-30.78-25.73-10.89-10.89-19.85-21.77-25.75-30.82Z"/>
    <path class="cls-10" d="M136.58,263.22h0s-.01-.02-.02-.03l.02.03Z"/>
    <path class="cls-2" d="M125.93,273.85c-10.88-10.88-19.84-21.76-25.74-30.81-15.17,15.59-15.05,40.74.38,56.17,15.43,15.43,40.58,15.55,56.17.38-9.05-5.9-19.92-14.86-30.81-25.74Z"/>
    <path class="cls-1" d="M259.7,140.08c10.45,10.45,20.89,19.12,29.72,25.02.17.17.34.34.5.49h0s21.18-76.48,21.18-76.48l-77.37,20.95s.82,1.05,2.86,3.05c5.8,8.2,13.74,17.58,23.12,26.96Z"/>
    <rect class="cls-8" x="158.85" y="205.51" width="22.02" height="104.52" rx="11.01" ry="11.01" transform="translate(232.03 -44.61) rotate(45)"/>
    <path class="cls-7" d="M291.49,94.43c1.35,3.21,3.32,6.22,5.94,8.83,2.44,2.44,5.22,4.32,8.19,5.66l5.48-19.8-19.6,5.31Z"/>
  </g>
</svg>