<?xml version="1.0" encoding="UTF-8"?>
<svg id="Layer_1" data-name="Layer 1" xmlns="http://www.w3.org/2000/svg" xmlns:xlink="http://www.w3.org/1999/xlink" viewBox="0 0 400 400">
  <defs>
    <style>
      .cls-1 {
        fill: none;
      }

      .cls-2 {
        fill: #cbdced;
      }

      .cls-2, .cls-3, .cls-4, .cls-5, .cls-6, .cls-7, .cls-8 {
        stroke: #3c1a53;
      }

      .cls-2, .cls-5, .cls-8 {
        stroke-width: 6px;
      }

      .cls-2, .cls-8 {
        stroke-miterlimit: 10;
      }

      .cls-3, .cls-4, .cls-5, .cls-6, .cls-7 {
        stroke-linecap: round;
        stroke-linejoin: round;
      }

      .cls-3, .cls-6, .cls-7 {
        stroke-width: 4.1px;
      }

      .cls-3, .cls-9 {
        fill: #3c1a53;
      }

      .cls-10 {
        clip-path: url(#clippath-1);
      }

      .cls-4 {
        stroke-width: 5px;
      }

      .cls-4, .cls-5, .cls-6, .cls-8 {
        fill: #e8e3db;
      }

      .cls-7 {
        fill: #cc9a0e;
      }

      .cls-11 {
        clip-path: url(#clippath);
      }
    </style>
    <clipPath id="clippath">
      <path class="cls-1" d="M110.96,48C58.85,78.59,23.86,135.21,23.86,200c0,97.28,78.86,176.14,176.14,176.14,14.87,0,29.3-1.85,43.09-5.32l95.35-95.35L110.96,48Z"/>
    </clipPath>
    <clipPath id="clippath-1">
      <path class="cls-1" d="M566.68,39.53c-52.11,30.59-87.1,87.2-87.1,152,0,97.28,78.86,176.14,176.14,176.14,14.87,0,29.3-1.85,43.09-5.32l95.35-95.35-227.47-227.47Z"/>
    </clipPath>
  </defs>
  <g>
    <circle class="cls-2" cx="200" cy="200" r="176.14"/>
    <path class="cls-8" d="M110.96,48C58.85,78.59,23.86,135.21,23.86,200c0,97.28,78.86,176.14,176.14,176.14,14.87,0,29.3-1.85,43.09-5.32l95.35-95.35L110.96,48Z"/>
    <g>
      <polygon class="cls-4" points="231.52 224.61 153.95 245.62 174.92 168.94 231.52 224.61"/>
      <path class="cls-7" d="M175.09,169.11l.04.04c-3.12,5.13-2.48,11.91,1.96,16.34,4.49,4.49,11.37,5.09,16.53,1.84l.5.49c-3.26,5.15-2.66,12.04,1.83,16.53,4.55,4.55,11.55,5.11,16.72,1.72l.42.42c-3.39,5.17-2.83,12.18,1.71,16.72,4.6,4.6,11.72,5.12,16.9,1.59l.03.03,122.74-122.74c-5.9-9.05-14.86-19.93-25.75-30.82-10.87-10.87-21.74-19.82-30.78-25.73l-122.84,123.58Z"/>
      <path class="cls-3" d="M354.48,102.09l10-10c.13-.13.25-.27.38-.4-5.9-9.05-14.86-19.92-25.74-30.81-10.88-10.88-21.76-19.84-30.81-25.74-.13.13-.27.25-.4.38l-9.96,10.02c9.04,5.9,19.91,14.85,30.78,25.73s19.85,21.77,25.75,30.82Z"/>
      <path class="cls-9" d="M328.46,71.52h0s.01.02.02.03l-.02-.03Z"/>
      <path class="cls-6" d="M339.11,60.89c10.88,10.88,19.84,21.76,25.74,30.81,15.17-15.59,15.05-40.74-.38-56.17s-40.58-15.55-56.17-.38c9.05,5.9,19.92,14.86,30.81,25.74Z"/>
      <path class="cls-9" d="M192.31,186.02l.23.22c-3.12,5.29-1.98,12.72,3.16,17.86s12.75,6.31,18.05,3.05l.4.39,125.17-125.17c-.12-.13-.24-.26-.35-.38-.65-.71-1.3-1.42-1.97-2.14-.26-.28-.52-.56-.79-.84-.56-.6-1.13-1.21-1.71-1.81-.28-.3-.57-.6-.86-.9-.59-.61-1.18-1.23-1.78-1.85-.27-.27-.53-.55-.8-.82-.86-.88-1.73-1.76-2.6-2.64h0c-.85-.85-1.69-1.68-2.54-2.51-.27-.27-.54-.53-.82-.79-.57-.56-1.15-1.11-1.72-1.66-.32-.31-.64-.61-.96-.92-.52-.5-1.05-.99-1.57-1.49-.33-.31-.67-.62-1-.93-.52-.48-1.03-.96-1.55-1.43-.21-.2-.43-.39-.64-.59l-125.35,125.35Z"/>
      <path class="cls-9" d="M156.1,247.76l13.75-3.72c1.25-7.02-.84-14.51-6.26-19.94-.26-.26-.53-.52-.81-.77l-6.68,24.43Z"/>
    </g>
    <g class="cls-11">
      <path class="cls-5" d="M95.61,90.25L-57.04,242.91M-35.83,264.12L116.83,111.46M-14.62,285.34l152.66-152.66M6.59,306.55l152.66-152.66M27.81,327.76l125.36-125.36M49.02,348.98l95.44-95.44"/>
    </g>
  </g>
  <g class="cls-10">
    <path class="cls-5" d="M551.33,81.78l-152.66,152.66M419.89,255.65l152.66-152.66M441.1,276.87l152.66-152.66M462.31,298.08l152.66-152.66M483.52,319.29l125.36-125.36"/>
  </g>
</svg>