<?xml version="1.0" encoding="UTF-8"?>
<svg id="Layer_1" data-name="Layer 1" xmlns="http://www.w3.org/2000/svg" xmlns:xlink="http://www.w3.org/1999/xlink" viewBox="0 0 400 400">
  <defs>
    <style>
      .cls-1, .cls-2 {
        fill: none;
      }

      .cls-3 {
        fill: #cc9a0e;
      }

      .cls-3, .cls-4, .cls-5, .cls-6, .cls-7, .cls-8, .cls-9, .cls-10 {
        stroke: #3c1a53;
      }

      .cls-3, .cls-4, .cls-10, .cls-2 {
        stroke-width: 6px;
      }

      .cls-3, .cls-10 {
        stroke-miterlimit: 10;
      }

      .cls-4, .cls-5, .cls-6, .cls-7, .cls-8, .cls-9, .cls-2 {
        stroke-linecap: round;
        stroke-linejoin: round;
      }

      .cls-4, .cls-10 {
        fill: #e8e3db;
      }

      .cls-11 {
        fill: #3c1a53;
      }

      .cls-5, .cls-6, .cls-7 {
        fill: #cbdced;
      }

      .cls-5, .cls-9 {
        stroke-width: 5px;
      }

      .cls-6 {
        stroke-width: 4.33px;
      }

      .cls-7, .cls-8 {
        stroke-width: 4.1px;
      }

      .cls-8, .cls-9 {
        fill: #f57c75;
      }

      .cls-2 {
        stroke: #f57c75;
      }

      .cls-12 {
        clip-path: url(#clippath);
      }
    </style>
    <clipPath id="clippath">
      <path class="cls-1" d="M110.96,48C58.85,78.59,23.86,135.21,23.86,200c0,97.28,78.86,176.14,176.14,176.14,14.87,0,29.3-1.85,43.09-5.32l95.35-95.35L110.96,48Z"/>
    </clipPath>
  </defs>
  <circle class="cls-3" cx="200" cy="200" r="176.14"/>
  <path class="cls-10" d="M110.96,48C58.85,78.59,23.86,135.21,23.86,200c0,97.28,78.86,176.14,176.14,176.14,14.87,0,29.3-1.85,43.09-5.32l95.35-95.35L110.96,48Z"/>
  <g>
    <path class="cls-8" d="M175.62,169.64c8.83,5.9,19.27,14.57,29.72,25.02,9.38,9.38,17.33,18.75,23.12,26.96,2.04,2,3.23,3.17,3.23,3.17l.03.03,122.74-122.74c-5.9-9.05-14.86-19.93-25.75-30.82-10.87-10.87-21.74-19.82-30.78-25.73l-122.81,123.61c.16.16.33.33.5.49Z"/>
    <path class="cls-7" d="M354.48,102.09l10-10c.13-.13.25-.27.38-.4-5.9-9.05-14.86-19.92-25.74-30.81-10.88-10.88-21.76-19.84-30.81-25.74-.13.13-.27.25-.4.38l-9.96,10.02c9.04,5.9,19.91,14.85,30.78,25.73,10.89,10.89,19.85,21.77,25.75,30.82Z"/>
    <path class="cls-11" d="M328.46,71.52h0s.01.02.02.03l-.02-.03Z"/>
    <path class="cls-8" d="M339.11,60.89c10.88,10.88,19.84,21.76,25.74,30.81,15.17-15.59,15.05-40.74-.38-56.17-15.43-15.43-40.58-15.55-56.17-.38,9.05,5.9,19.92,14.86,30.81,25.74Z"/>
    <path class="cls-5" d="M205.34,194.66c-10.45-10.45-20.89-19.12-29.72-25.02-.17-.17-.34-.34-.5-.49h0s-21.18,76.48-21.18,76.48l77.37-20.95s-.82-1.05-2.86-3.05c-5.8-8.2-13.74-17.58-23.12-26.96Z"/>
    <rect class="cls-6" x="284.17" y="24.7" width="22.02" height="104.52" rx="11.01" ry="11.01" transform="translate(449.48 340.11) rotate(-135)"/>
    <path class="cls-9" d="M173.55,240.31c-1.35-3.21-3.32-6.22-5.94-8.83-2.44-2.44-5.22-4.32-8.19-5.66l-5.48,19.8,19.6-5.31Z"/>
  </g>
  <g class="cls-12">
    <path class="cls-4" d="M95.61,90.25L-57.04,242.91M-35.83,264.12L116.83,111.46M-14.62,285.34l152.66-152.66M6.59,306.55l152.66-152.66M27.81,327.76l125.36-125.36"/>
  </g>
  <polyline class="cls-2" points="113.6 331.67 155.39 346.35 147.48 256"/>
</svg>