<?xml version="1.0" encoding="UTF-8"?>
<svg id="Layer_1" data-name="Layer 1" xmlns="http://www.w3.org/2000/svg" xmlns:xlink="http://www.w3.org/1999/xlink" viewBox="0 0 400 400">
  <defs>
    <style>
      .cls-1 {
        fill: none;
      }

      .cls-2, .cls-3 {
        fill: #f57c75;
      }

      .cls-4 {
        fill: #e8e3db;
      }

      .cls-5 {
        fill: #8e4642;
      }

      .cls-6 {
        fill: #3c1a53;
      }

      .cls-7 {
        fill: #3c1a53;
      }

      .cls-3 {
        stroke: #3c1a53;
        stroke-miterlimit: 10;
        stroke-width: 6px;
      }

      .cls-8 {
        fill: #fabdba;
      }

      .cls-9 {
        fill: #dcd8d0;
      }

      .cls-10 {
        clip-path: url(#clippath);
      }
    </style>
    <clipPath id="clippath">
      <circle class="cls-1" cx="200" cy="200" r="173.04"/>
    </clipPath>
  </defs>
  <circle class="cls-3" cx="200" cy="200" r="176.14"/>
  <g>
    <path class="cls-9" d="M80.25,297.67c-1.4,0-2.53-1.13-2.54-2.53l-.56-193.2c0-.67.26-1.32.74-1.8.48-.48,1.12-.75,1.8-.75h248.41c1.4,0,2.54,1.14,2.54,2.54v193.2c0,1.4-1.14,2.54-2.54,2.54H80.25Z"/>
    <path class="cls-7" d="M328.1,101.93v193.2H80.25l-.56-193.2h248.41M328.1,96.86H79.69c-1.35,0-2.64.54-3.59,1.49-.95.95-1.48,2.25-1.48,3.6l.56,193.2c0,2.8,2.28,5.06,5.07,5.06h247.85c2.8,0,5.07-2.27,5.07-5.07V101.93c0-2.8-2.27-5.07-5.07-5.07h0Z"/>
  </g>
  <g>
    <path class="cls-4" d="M99.19,285.67c-.65,0-1.28-.26-1.74-.72-8.69-8.69-14.72-42.24-17.92-99.7-2.36-42.42-2.29-82.92-2.29-83.32,0-1.36,1.1-2.45,2.46-2.45h248.41c1.33,0,2.43,1.07,2.46,2.4,1.03,44.99,7.21,164.93,23.17,179.52.75.68,1,1.76.63,2.7s-1.28,1.57-2.29,1.57H99.19Z"/>
    <path class="cls-7" d="M328.1,101.93s3.73,162.79,23.96,181.28H99.19c-19.89-19.89-19.5-181.28-19.5-181.28h248.41M328.1,97.02H79.69c-2.71,0-4.91,2.19-4.92,4.9,0,.4-.07,40.98,2.3,83.47,1.39,25.03,3.35,45.84,5.82,61.86,2.08,13.51,5.67,32.3,12.82,39.45.92.92,2.17,1.44,3.48,1.44h252.88c2.03,0,3.85-1.25,4.58-3.14.73-1.89.23-4.04-1.27-5.41-3.37-3.08-11.87-18.44-17.98-94.3-3.41-42.38-4.37-83.06-4.38-83.46-.06-2.67-2.24-4.8-4.91-4.8h0Z"/>
  </g>
  <g>
    <path class="cls-6" d="M207.76,270.38l.16.68c.21.9-.41,1.64-1.38,1.64h-38.25c-.97,0-1.92-.73-2.13-1.64l-.16-.68c-.21-.9.41-1.64,1.38-1.64h15.08c.97,0,1.59-.73,1.38-1.64l-13.67-59.66s0-.02,0-.04c-.32-1.42-2.28-2.19-3.2-1.25l-11.95,12.23c-.44.43-.93.59-1.49.48-.56-.11-1.03-.32-1.41-.64l-.94-.93c-.69-.68-.79-1.63-.24-2.19l17.6-17.88c.26-.26.64-.41,1.07-.41h1.87c.97,0,1.92.73,2.13,1.64l15.74,68.65c.21.9,1.16,1.64,2.13,1.64h14.17c.97,0,1.92.73,2.13,1.64Z"/>
    <path class="cls-6" d="M272.65,246.96c.97,0,1.92.73,2.13,1.64l.26,1.14c.09.39.04.7-.16.93s-.56.35-1.09.35h-11.52c-.97,0-1.59.73-1.38,1.64l4.22,18.4c.21.9-.41,1.64-1.38,1.64h-1.3c-.97,0-1.92-.73-2.13-1.64l-4.22-18.4c-.21-.9-1.16-1.64-2.13-1.64h-36.51c-.57,0-1.04-.11-1.39-.35-.36-.23-.64-.54-.84-.93l-.78-1.79c-.2-.46-.19-.93.03-1.3l28.45-48.96c.24-.41.7-.65,1.25-.65h2.24c.97,0,1.92.73,2.13,1.64l10.69,46.65c.21.9,1.16,1.64,2.13,1.64h11.31ZM253.03,246.96c.97,0,1.59-.73,1.38-1.64l-8.69-37.93c-.14-.6-.26-1.26-.37-1.98-.11-.71-.21-1.44-.3-2.19l-23.49,41.11c-.62,1.08.56,2.62,2,2.62h29.47Z"/>
  </g>
  <path class="cls-2" d="M79.6,182.95h252.59l-4.08-81.02H75.22s2.73,76.27,4.38,81.02Z"/>
  <g>
    <g>
      <circle class="cls-5" cx="154.66" cy="115.78" r="8.39"/>
      <path class="cls-7" d="M154.66,109.52c3.46,0,6.26,2.8,6.26,6.26s-2.8,6.26-6.26,6.26-6.26-2.8-6.26-6.26,2.8-6.26,6.26-6.26M154.66,105.25c-5.8,0-10.53,4.72-10.53,10.53s4.72,10.53,10.53,10.53,10.53-4.72,10.53-10.53-4.72-10.53-10.53-10.53h0Z"/>
    </g>
    <g>
      <circle class="cls-5" cx="248.67" cy="115.78" r="8.39"/>
      <path class="cls-7" d="M248.67,109.52c3.46,0,6.26,2.8,6.26,6.26s-2.8,6.26-6.26,6.26-6.26-2.8-6.26-6.26,2.8-6.26,6.26-6.26M248.67,105.25c-5.8,0-10.53,4.72-10.53,10.53s4.72,10.53,10.53,10.53,10.53-4.72,10.53-10.53-4.72-10.53-10.53-10.53h0Z"/>
    </g>
  </g>
  <g class="cls-10">
    <g>
      <g>
        <path class="cls-4" d="M21.8,348.88c-.34,0-.68-.07-1-.21-.88-.4-1.45-1.27-1.45-2.24v-193.07c0-.7.3-1.37.82-1.83l55.62-49.7c.46-.41,1.04-.62,1.64-.62.34,0,.68.07,1,.21.88.4,1.45,1.27,1.45,2.24v193.07c0,.7-.3,1.37-.82,1.83l-55.62,49.7c-.46.41-1.04.62-1.64.62Z"/>
        <path class="cls-7" d="M77.42,103.66v193.07l-55.62,49.7v-193.07l55.62-49.7M77.42,98.74c-1.19,0-2.36.43-3.27,1.25l-55.62,49.7c-1.04.93-1.64,2.26-1.64,3.66v193.07c0,1.94,1.14,3.69,2.91,4.48.64.29,1.33.43,2.01.43,1.19,0,2.36-.43,3.27-1.25l55.62-49.7c1.04-.93,1.64-2.26,1.64-3.66V103.66c0-1.94-1.14-3.69-2.91-4.48-.64-.29-1.33-.43-2.01-.43h0Z"/>
      </g>
      <g>
        <path class="cls-4" d="M30.16,342.33c-1.03,0-1.95-.64-2.3-1.61-.36-.97-.07-2.05.71-2.72l50.71-43.15c.44-.38,1.01-.59,1.59-.59h244.97c1.01,0,1.92.62,2.29,1.57.37.95.11,2.02-.63,2.7l-47.25,43.15c-.45.41-1.04.64-1.66.64H30.16Z"/>
        <path class="cls-7" d="M325.85,296.72h0M325.85,296.72l-47.25,43.15H30.16l50.72-43.15h244.97M325.85,291.81H80.88c-1.17,0-2.29.42-3.18,1.17l-50.72,43.15c-1.57,1.33-2.14,3.5-1.43,5.44.71,1.93,2.55,3.22,4.61,3.22h248.43c1.23,0,2.41-.46,3.31-1.29l47.19-43.09c1.02-.9,1.67-2.22,1.67-3.69,0-2.71-2.2-4.91-4.91-4.91h0ZM325.85,301.64h0,0Z"/>
      </g>
      <polygon class="cls-8" points="26.93 228.39 77.41 183.11 77.36 103.72 26.74 149.05 26.93 228.39"/>
    </g>
  </g>
</svg>