<?xml version="1.0" encoding="UTF-8"?>
<svg id="Layer_1" data-name="Layer 1" xmlns="http://www.w3.org/2000/svg" viewBox="0 0 400 400">
  <defs>
    <style>
      .cls-1 {
        fill: #dcd8d0;
      }

      .cls-1, .cls-2, .cls-3, .cls-4, .cls-5, .cls-6, .cls-7, .cls-8, .cls-9, .cls-10, .cls-11 {
        stroke: #3c1a53;
      }

      .cls-1, .cls-2, .cls-4, .cls-5, .cls-6, .cls-7, .cls-8, .cls-9, .cls-10, .cls-11, .cls-12 {
        stroke-linecap: round;
      }

      .cls-1, .cls-2, .cls-4, .cls-5, .cls-6, .cls-7, .cls-8, .cls-9, .cls-11, .cls-12 {
        stroke-linejoin: round;
      }

      .cls-1, .cls-7 {
        stroke-width: 4.11px;
      }

      .cls-2 {
        fill: #f57c75;
      }

      .cls-2, .cls-4, .cls-5, .cls-8, .cls-12 {
        stroke-width: 5px;
      }

      .cls-3 {
        fill: #cc9a0e;
        stroke-width: 6px;
      }

      .cls-3, .cls-10 {
        stroke-miterlimit: 10;
      }

      .cls-4 {
        fill: #cbdced;
      }

      .cls-5, .cls-6 {
        fill: #e8e3db;
      }

      .cls-6 {
        stroke-width: 4.63px;
      }

      .cls-7, .cls-8, .cls-9, .cls-10, .cls-12 {
        fill: none;
      }

      .cls-13, .cls-11 {
        fill: #3f778c;
      }

      .cls-9 {
        stroke-width: 8.5px;
      }

      .cls-14 {
        fill: #3c1a53;
      }

      .cls-15 {
        fill: #3c1a53;
      }

      .cls-10 {
        stroke-width: 4.7px;
      }

      .cls-11 {
        stroke-width: 8.21px;
      }

      .cls-12 {
        stroke: #3c1a53;
      }
    </style>
  </defs>
  <g>
    <circle class="cls-3" cx="200" cy="200" r="176.14"/>
    <g>
      <g>
        <path class="cls-13" d="M266.72,242.97c-26.6,0-51.6-10.36-70.41-29.17-18.81-18.81-29.17-43.81-29.17-70.41s10.36-51.6,29.17-70.41c18.81-18.81,43.81-29.17,70.41-29.17s51.6,10.36,70.41,29.17c38.82,38.82,38.82,102,0,140.82-18.81,18.81-43.81,29.17-70.41,29.17Z"/>
        <path class="cls-15" d="M266.72,46.69c24.75,0,49.5,9.44,68.38,28.32,37.76,37.76,37.76,98.99,0,136.76-18.88,18.88-43.63,28.32-68.38,28.32s-49.5-9.44-68.38-28.32c-37.76-37.76-37.76-98.99,0-136.76,18.88-18.88,43.63-28.32,68.38-28.32M266.72,40.95c-27.37,0-53.09,10.66-72.44,30.01-39.95,39.95-39.95,104.94,0,144.89,19.35,19.35,45.08,30.01,72.44,30.01s53.09-10.66,72.44-30.01c19.35-19.35,30.01-45.08,30.01-72.44s-10.66-53.09-30.01-72.44c-19.35-19.35-45.08-30.01-72.44-30.01h0Z"/>
      </g>
      <ellipse class="cls-7" cx="266.72" cy="143.4" rx="96.7" ry="68.98" transform="translate(-23.27 230.6) rotate(-45)"/>
      <ellipse class="cls-7" cx="266.72" cy="143.4" rx="96.7" ry="37.42" transform="translate(-23.27 230.6) rotate(-45)"/>
      <g>
        <line class="cls-1" x1="229.01" y1="52.23" x2="357.89" y2="181.11"/>
        <line class="cls-1" x1="175.55" y1="105.68" x2="304.44" y2="234.57"/>
      </g>
      <path class="cls-9" d="M365.67,44.45l-21.59,21.59c42.74,42.74,42.74,112.05,0,154.79s-112.05,42.74-154.79,0l-19.21,19.21"/>
      <g>
        <path class="cls-14" d="M265.9,304.04c-16.43,0-31.89-.78-43.54-2.19-14.2-1.72-19.74-3.76-19.74-7.29s5.53-5.56,19.74-7.29c11.64-1.41,27.1-2.19,43.54-2.19s31.89.78,43.54,2.19c14.2,1.72,19.74,3.76,19.74,7.29s-5.53,5.56-19.74,7.29c-11.64,1.41-27.1,2.19-43.54,2.19Z"/>
        <path class="cls-15" d="M265.9,287.14c33.81,0,61.22,3.32,61.22,7.42s-27.41,7.42-61.22,7.42-61.22-3.32-61.22-7.42,27.41-7.42,61.22-7.42M265.9,283.04c-16.51,0-32.06.78-43.78,2.2-15.91,1.93-21.54,4.37-21.54,9.32s5.64,7.4,21.54,9.32c11.72,1.42,27.27,2.2,43.78,2.2s32.06-.78,43.78-2.2c15.91-1.93,21.54-4.37,21.54-9.32s-5.64-7.4-21.54-9.32c-11.72-1.42-27.27-2.2-43.78-2.2h0Z"/>
      </g>
      <line class="cls-11" x1="266" y1="253.43" x2="266" y2="292.39"/>
    </g>
    <path class="cls-4" d="M307.55,204.34c0-19.03-41.48-20.99-41.48-20.99,0,0,3.42-8.79-2.44-12.2s-28.31,18.06-28.31,18.06l-46.37,41s-2.93-5.37-13.67-30.26c-10.74-24.89-21.96-29.28-26.84-34.16,6.34-6.34,7.32-20.01,7.32-20.01v-43.44s6.35-54.66-50.27-54.66-54.17,54.66-54.17,54.66v67.35s-8.54,11.96-25.87,29.28c-.55.55-1.07,1.1-1.58,1.67.3,84.89,60.66,155.63,140.81,171.95.51-24.89,2.31-92.6,2.31-92.6,0,0,7.81,12.69,19.52,12.69s20.01-9.76,20.01-9.76l51.25-57.1,49.78-21.47Z"/>
    <path class="cls-8" d="M166.99,279.99s6.34-17.57,5.86-30.26c-.49-12.69-5.86-30.26-5.86-30.26"/>
    <path class="cls-2" d="M148.44,165.79c6.34-6.34,7.32-20.01,7.32-20.01v-43.44s6.35-54.66-50.27-54.66-54.17,54.66-54.17,54.66v67.35s-7.28,10.19-22.02,25.38c10.56,16.79,37.89,53.2,76.19,53.2,32.06,0,55.41-30.56,67.98-52.32-10.17-21.38-20.42-25.55-25.03-30.16Z"/>
    <path class="cls-5" d="M307.55,204.34c0-19.03-41.48-20.99-41.48-20.99,0,0,3.42-8.79-2.44-12.2-5.86-3.42-28.31,18.06-28.31,18.06l-.6.53c.3,6.97,1.47,14.98,4.77,21.1,7.32,13.6,18.29,14.98,18.29,14.98,0,0,50.44-15.13,49.78-21.47Z"/>
    <path class="cls-6" d="M63.03,100.87s-8.3,62.96,40.51,62.96,38.07-64.91,38.07-64.91c0,0-4.88-15.13-39.04-15.13s-39.53,17.08-39.53,17.08Z"/>
    <path class="cls-8" d="M148.44,165.79s-13.67,20.5-45.39,28.8"/>
    <g>
      <path class="cls-12" d="M80.28,117.81s1.78-3.26,6.21-3.26,5.92,2.96,5.92,2.96"/>
      <path class="cls-12" d="M111.94,117.81s1.78-3.26,6.21-3.26,5.92,2.96,5.92,2.96"/>
    </g>
    <path class="cls-8" d="M252.89,208.35s4.52-6.49,22.02-1.98c0,0,21.72-10.84,30-8.58"/>
    <path class="cls-8" d="M274.84,190.17s3.39,10.94.07,16.2"/>
  </g>
  <line class="cls-10" x1="49.39" y1="236.95" x2="49.39" y2="291.54"/>
</svg>