<?xml version="1.0" encoding="UTF-8"?>
<svg id="Layer_1" data-name="Layer 1" xmlns="http://www.w3.org/2000/svg" viewBox="0 0 400 400">
  <defs>
    <style>
      .cls-1 {
        fill: #3f778c;
      }

      .cls-1, .cls-2, .cls-3, .cls-4, .cls-5, .cls-6, .cls-7, .cls-8, .cls-9 {
        stroke: #3c1a53;
      }

      .cls-1, .cls-2, .cls-3, .cls-8, .cls-9 {
        stroke-miterlimit: 10;
      }

      .cls-1, .cls-3, .cls-9 {
        stroke-width: 6px;
      }

      .cls-2, .cls-4, .cls-5, .cls-6, .cls-7, .cls-8 {
        stroke-width: 4.5px;
      }

      .cls-2, .cls-6 {
        fill: none;
      }

      .cls-3, .cls-7 {
        fill: #cc9a0e;
      }

      .cls-4, .cls-5, .cls-6, .cls-7 {
        stroke-linecap: round;
        stroke-linejoin: round;
      }

      .cls-4, .cls-9 {
        fill: #3c1a53;
      }

      .cls-5, .cls-8 {
        fill: #e8e3db;
      }
    </style>
  </defs>
  <circle class="cls-1" cx="200" cy="201.58" r="176.14"/>
  <rect class="cls-5" x="161.55" y="153.7" width="76.16" height="82.22"/>
  <path class="cls-3" d="M247.61,195.29l-30.67,3.52-16.94,23.35-16.94-23.35-30.67-3.52s-60.33,19.29-68.26,40.96c-7.93,21.67-8.54,77.51-8.54,77.51v12.5c22.87,22.82,51.98,39.39,84.54,46.93,14.68,1.73,30.09,2.25,45.98,2.25,18.87,0,37.05-2.91,54.13-8.3,24.35-8.86,46.19-22.94,64.17-40.88v-12.5s-.61-55.85-8.54-77.51c-7.93-21.67-68.26-40.96-68.26-40.96Z"/>
  <path class="cls-9" d="M243.96,195.47c-6.71,10.88-22.37,18.77-41.02,19.76h-7.96c-18.65-.99-34.31-8.88-41.02-19.76l-1.55-.18s-20.47,6.55-39.13,16.3l.05,1.18c7.73,12.41,12.7,31.63,12.7,53.23,0,17.16-3.14,32.82-8.3,44.75l1.44,47.35c19.77,10.23,41.73,16.82,64.99,18.9,7.2-.87,14.53-1.56,21.97-1.56,18.93,0,37.16-2.93,54.3-8.35,6.03-2.2,11.89-4.73,17.59-7.55l2.19-48.79c-5.16-11.94-8.3-27.59-8.3-44.75,0-21.6,4.97-40.83,12.7-53.23l.05-1.18c-18.66-9.75-39.13-16.3-39.13-16.3l-1.55.18Z"/>
  <path class="cls-4" d="M205.79,181c24.54,0,47.1-2.96,64.98-7.9,10.09-22.68,14.53-50.32,11.41-78.48-6.34-57.3-45.56-116.25-82.18-79.63-32.05-32.05-75.84,22.34-82.18,79.63-2.91,26.35.78,52.23,9.53,74.04,19.23,7.57,47.24,12.34,78.44,12.34Z"/>
  <path class="cls-5" d="M232.95,59.85s-6.71,7.63-33.57,23.5c-18.54,10.96-47.7,14.49-63.97,15.63-.02.79-.05,1.58-.05,2.38,0,47.31,28.94,85.66,64.64,85.66s64.64-38.35,64.64-85.66c0-2.12-.08-4.21-.19-6.29-32.77-6.33-31.5-35.22-31.5-35.22Z"/>
  <g>
    <path class="cls-8" d="M174.28,125.23h-22.44c-10.12,0-20.01-6.86-22.24-16.33h0c-2.57-10.93,5.76-21.2,18.9-21.2h29.13c13.14,0,21.47,10.27,18.9,21.2h0c-2.23,9.47-12.12,16.33-22.24,16.33Z"/>
    <path class="cls-5" d="M248.16,125.23h-22.44c-10.12,0-20.01-6.86-22.24-16.33h0c-2.57-10.93,5.76-21.2,18.9-21.2h29.13c13.14,0,21.47,10.27,18.9,21.2h0c-2.23,9.47-12.12,16.33-22.24,16.33Z"/>
    <path class="cls-2" d="M196.41,101c1.09-.46,2.3-.72,3.59-.72s2.5.26,3.59.72"/>
  </g>
  <path class="cls-6" d="M188.73,155.41c2.59,1.5,6.69,2.47,11.3,2.47s8.64-.95,11.24-2.43"/>
  <g>
    <path class="cls-7" d="M161.55,179.79l-9.16,15.5s5.49,12.32,13.27,17.49c7.78,5.17,8.7,5.17,8.7,5.17l8.7-20.27s-13.73.37-21.51-17.89Z"/>
    <path class="cls-7" d="M238.45,179.79l9.16,15.5s-5.49,12.32-13.27,17.49c-7.78,5.17-8.7,5.17-8.7,5.17l-8.7-20.27s13.73.37,21.51-17.89Z"/>
  </g>
  <rect class="cls-5" x="215.74" y="252.57" width="46.39" height="16.48" rx="5.08" ry="5.08"/>
</svg>