<?xml version="1.0" encoding="UTF-8"?>
<svg id="Layer_1" data-name="Layer 1" xmlns="http://www.w3.org/2000/svg" viewBox="0 0 400 400">
  <defs>
    <style>
      .cls-1 {
        fill: #cbdced;
        stroke-miterlimit: 10;
        stroke-width: 6px;
      }

      .cls-1, .cls-2, .cls-3, .cls-4, .cls-5 {
        stroke: #3c1a53;
      }

      .cls-2 {
        fill: #f57c75;
      }

      .cls-2, .cls-3, .cls-4, .cls-6, .cls-5 {
        stroke-linecap: round;
        stroke-linejoin: round;
      }

      .cls-2, .cls-3, .cls-6, .cls-5 {
        stroke-width: 5px;
      }

      .cls-3, .cls-4, .cls-6 {
        fill: none;
      }

      .cls-7 {
        fill: #9ca9b7;
      }

      .cls-4 {
        stroke-width: 10.38px;
      }

      .cls-6 {
        stroke: #e8e3db;
      }

      .cls-5 {
        fill: #3f778c;
      }
    </style>
  </defs>
  <circle class="cls-1" cx="200" cy="200" r="176.14"/>
  <ellipse class="cls-7" cx="200" cy="328.66" rx="105.03" ry="20.65"/>
  <g>
    <line class="cls-4" x1="194.42" y1="183.17" x2="213.64" y2="315.59"/>
    <polyline class="cls-4" points="115.38 329.15 194.42 183.17 271.24 325.06"/>
  </g>
  <g>
    <path class="cls-2" d="M99.56,190.72c-3.89-8.26-4.43-17.02-2.12-24.07l-26.98,17.06c-7.31,3.44-9.65,13.82-5.25,23.18,4.41,9.36,13.9,14.17,21.21,10.73l30.34-9.93c-6.9-2.72-13.31-8.71-17.2-16.97Z"/>
    <ellipse class="cls-2" cx="323.67" cy="85.21" rx="49.64" ry="63.63" transform="translate(-5.46 145.99) rotate(-25.21)"/>
    <path class="cls-5" d="M290.43,31.25c-19.89,14.24-25.33,46.1-11.68,75.1,13.65,29,41.68,45.1,65.32,38.85,19.89-14.24,25.33-46.1,11.68-75.1-13.65-29-41.68-45.1-65.32-38.85Z"/>
    <path class="cls-3" d="M71.03,183.34l-.57.36c-7.31,3.44-9.65,13.82-5.25,23.18,4.41,9.36,13.9,14.17,21.21,10.73l.65-.21c-6.52-.29-13.31-5.14-16.93-12.83-3.62-7.69-3.04-16.02.9-21.23Z"/>
    <path class="cls-2" d="M278.76,106.35c-13.3-28.25-8.47-59.21,10.16-73.95l-105.02,65.39-1.83,1.64c-12.52,11.99-15.34,34.48-5.63,55.1,9.69,20.59,28.78,32.73,45.97,30.77l2.52-.38,117.31-39.28c-23.24,4.97-50.18-11.03-63.48-39.28Z"/>
    <path class="cls-2" d="M176.44,154.53c-6.78-14.4-7.44-29.72-2.96-41.73l-65.67,41.52c-11.47,5.4-15.16,21.7-8.24,36.4,6.92,14.7,21.83,22.24,33.31,16.84l73.84-24.17c-12.11-4.2-23.49-14.46-30.28-28.87Z"/>
    <path class="cls-6" d="M288.38,45.7c18.73-8.82,43.07,3.49,54.37,27.49"/>
  </g>
</svg>