<?xml version="1.0" encoding="UTF-8"?>
<svg id="Layer_1" data-name="Layer 1" xmlns="http://www.w3.org/2000/svg" viewBox="0 0 400 400">
  <defs>
    <style>
      .cls-1, .cls-2 {
        fill: #cbdced;
      }

      .cls-2 {
        stroke-width: 6px;
      }

      .cls-2, .cls-3, .cls-4 {
        stroke: #3c1a53;
        stroke-miterlimit: 10;
      }

      .cls-3 {
        fill: none;
        stroke-width: 7px;
      }

      .cls-4 {
        fill: #cc9a0e;
        stroke-width: 5px;
      }

      .cls-5 {
        fill: #3f778c;
      }

      .cls-6 {
        fill: #3c1a53;
      }

      .cls-7 {
        fill: #3c1a53;
      }
    </style>
  </defs>
  <circle class="cls-2" cx="200" cy="200" r="176.14"/>
  <g>
    <path class="cls-1" d="M200,376.04c-2.71,0-5.48-.28-8.24-.83l-1.63-.33v-139.37h19.75v139.37l-1.63.33c-2.76.55-5.53.83-8.24.83Z"/>
    <path class="cls-7" d="M207.84,237.54v135.68c-2.58.52-5.2.79-7.84.79s-5.26-.28-7.84-.79v-135.68h15.69M211.9,233.47h-23.81v143.06l3.26.66c2.89.58,5.79.87,8.64.87s5.76-.29,8.64-.87l3.26-.66v-143.06h0Z"/>
  </g>
  <path class="cls-5" d="M192.16,305.43c5.06,1.83,10.62,1.83,15.69,0v-56.6h-15.69v56.6Z"/>
  <rect class="cls-4" x="108.52" y="84.22" width="182.96" height="182.96" rx="23.05" ry="23.05" transform="translate(-65.66 192.88) rotate(-45)"/>
  <rect class="cls-3" x="121.28" y="96.98" width="157.45" height="157.45" rx="14.18" ry="14.18" transform="translate(-65.66 192.88) rotate(-45)"/>
  <path class="cls-6" d="M205.59,205.56l-4.85,22.66h-23.1l4.71-22.66h23.24ZM200.74,196.74h-10.3l3.68-45.02,6.03-28.54h22.21l-6.18,28.54-15.45,45.02Z"/>
</svg>