<?xml version="1.0" encoding="UTF-8"?>
<svg id="Layer_1" data-name="Layer 1" xmlns="http://www.w3.org/2000/svg" viewBox="0 0 400 400">
  <defs>
    <style>
      .cls-1 {
        fill: #cbdced;
        stroke: #3c1a53;
        stroke-width: 6px;
      }

      .cls-1, .cls-2 {
        stroke-miterlimit: 10;
      }

      .cls-3 {
        fill: #e8e3db;
      }

      .cls-4 {
        fill: #3c1a53;
      }

      .cls-2 {
        fill: #3f778c;
        stroke: #3c1a53;
        stroke-width: 5.23px;
      }
    </style>
  </defs>
  <circle class="cls-1" cx="200" cy="200" r="176.14"/>
  <circle class="cls-2" cx="200" cy="200" r="153.59"/>
  <g>
    <path class="cls-3" d="M157.38,311.77c-.48-2.38-.72-4.68-.72-6.85,0-2.41.75-4.17,2.22-5.22,1.03-.73,2.16-1.26,3.35-1.56l.15-.03c6.83-1.28,11.52-2.65,13.93-4.05,1.89-1.11,2.78-2.76,2.78-5.21v-88.35c0-6.18-1-10.92-2.97-14.07-1.75-2.8-6.53-4.6-13.81-5.19l-.17-.02c-4.11-.63-6.47-3.48-6.47-7.82v-2.51c0-1.4.31-2.74.94-3.97l.69-1.38h1.54c1.38,0,3.37-.06,5.74-.16,2.28-.1,4.7-.19,7.24-.3l.97-.04c2.87-.11,5.76-.28,8.61-.5,2.89-.22,5.55-.45,8-.67,5.43-.66,10.76-1.54,15.75-2.63,5.45-1.18,8.92-1.73,10.91-1.73,4.92,0,7.86,2.81,7.86,7.52,0,2.59-.35,6-1.04,10.12-.64,3.86-.97,9.35-.97,16.32v95.39c0,2.44.94,4.03,3.04,5.16,2.66,1.43,7.27,2.81,13.7,4.1,3.6.66,5.69,3.14,5.69,6.8v3.34c0,1.5-.32,2.89-.94,4.13l-.75,1.51-1.68-.14c-5.45-.44-11.5-.83-18-1.17-6.4-.33-14.01-.5-22.63-.5s-16.13.17-22.29.5c-6.29.34-12.36.73-18.01,1.17l-2.21.17-.43-2.17ZM200,140.08c-7.57,0-13.97-2.56-19.01-7.6-5.04-5.03-7.59-11.54-7.59-19.34s2.55-14.3,7.59-19.34,11.43-7.6,19.01-7.6,14.25,2.56,19.19,7.62c4.91,5.04,7.41,11.54,7.41,19.32s-2.49,14.28-7.4,19.32c-4.93,5.05-11.39,7.62-19.19,7.62Z"/>
    <path class="cls-4" d="M200,88.72c7.14,0,12.94,2.29,17.4,6.86,4.46,4.58,6.69,10.43,6.69,17.57s-2.23,13-6.69,17.57c-4.47,4.58-10.27,6.86-17.4,6.86s-12.67-2.29-17.24-6.86c-4.58-4.57-6.86-10.43-6.86-17.57s2.28-12.99,6.86-17.57c4.57-4.57,10.32-6.86,17.24-6.86M216.06,162.01c3.57,0,5.36,1.67,5.36,5.02,0,2.46-.33,5.69-1.01,9.7-.67,4.02-1,9.6-1,16.73v95.39c0,3.35,1.45,5.8,4.35,7.36,2.9,1.56,7.7,3.01,14.39,4.35,2.45.45,3.68,1.9,3.68,4.35v3.34c0,1.12-.23,2.12-.67,3.01-5.58-.45-11.6-.84-18.07-1.17-6.47-.33-14.06-.5-22.76-.5s-16.18.17-22.42.5c-6.25.33-12.27.72-18.07,1.17-.45-2.23-.67-4.35-.67-6.36,0-1.56.39-2.62,1.17-3.18.78-.55,1.62-.94,2.51-1.17,7.14-1.34,12.05-2.79,14.73-4.35,2.68-1.56,4.02-4.02,4.02-7.36v-88.35c0-6.69-1.12-11.82-3.35-15.4-2.23-3.57-7.48-5.69-15.73-6.36-2.9-.44-4.35-2.23-4.35-5.35v-2.51c0-1.01.22-1.95.67-2.85,1.34,0,3.29-.05,5.86-.17,2.56-.11,5.29-.22,8.2-.33,2.89-.11,5.8-.28,8.7-.5,2.9-.22,5.57-.45,8.03-.67,5.57-.67,10.93-1.56,16.06-2.68,5.13-1.11,8.59-1.67,10.38-1.67M200,83.72c-8.26,0-15.25,2.8-20.77,8.33-5.52,5.52-8.32,12.62-8.32,21.1s2.8,15.59,8.33,21.11c5.52,5.52,12.51,8.33,20.77,8.33s15.56-2.82,20.98-8.37c5.38-5.52,8.11-12.6,8.11-21.06s-2.73-15.54-8.11-21.06c-5.43-5.56-12.49-8.37-20.98-8.37h0ZM216.06,157.01c-2.2,0-5.73.55-11.43,1.79-4.91,1.07-10.13,1.94-15.53,2.59-2.59.23-5.24.45-7.89.66-2.82.22-5.68.38-8.51.49l-.52.02c-2.72.11-5.29.21-7.71.31-2.35.11-4.3.16-5.65.16h-3.08l-1.38,2.76c-.8,1.59-1.2,3.3-1.2,5.09v2.51c0,5.62,3.21,9.47,8.6,10.3l.17.03h.18c8.91.74,11.29,3.07,11.9,4.04,1.71,2.75,2.59,7.04,2.59,12.74v88.35c0,1.79-.59,2.49-1.54,3.05-1.22.71-4.54,2.14-13.13,3.76l-.15.03-.15.04c-1.49.38-2.9,1.03-4.18,1.94-1.5,1.07-3.28,3.19-3.28,7.26,0,2.34.26,4.81.77,7.34l.87,4.35,4.42-.34c5.63-.44,11.67-.83,17.95-1.17,6.12-.33,13.58-.49,22.16-.49s16.14.17,22.5.49c6.48.33,12.51.73,17.93,1.16l3.36.27,1.51-3.02c.8-1.59,1.2-3.36,1.2-5.25v-3.34c0-4.82-2.96-8.36-7.73-9.26-7.68-1.54-11.29-2.94-12.97-3.84-1.27-.68-1.72-1.46-1.72-2.96v-95.39c0-6.83.31-12.19.93-15.91.72-4.31,1.07-7.76,1.07-10.52,0-6.09-4.07-10.02-10.36-10.02h0Z"/>
  </g>
</svg>