<?xml version="1.0" encoding="UTF-8"?>
<svg id="Layer_1" data-name="Layer 1" xmlns="http://www.w3.org/2000/svg" viewBox="0 0 400 400">
  <defs>
    <style>
      .cls-1, .cls-2 {
        fill: none;
      }

      .cls-1, .cls-2, .cls-3, .cls-4, .cls-5, .cls-6, .cls-7 {
        stroke-miterlimit: 10;
      }

      .cls-1, .cls-2, .cls-3, .cls-4, .cls-6, .cls-7 {
        stroke: #3c1a53;
      }

      .cls-1, .cls-3, .cls-6 {
        stroke-width: 5.26px;
      }

      .cls-2, .cls-4 {
        stroke-linecap: round;
        stroke-width: 5px;
      }

      .cls-3, .cls-8 {
        fill: #e8e3db;
      }

      .cls-4, .cls-6, .cls-7 {
        fill: #3f778c;
      }

      .cls-5 {
        fill: #f57c75;
        stroke: #3c1a53;
        stroke-width: 6px;
      }

      .cls-7 {
        stroke-width: 5.45px;
      }
    </style>
  </defs>
  <circle class="cls-5" cx="200" cy="200" r="176.14"/>
  <path class="cls-1" d="M76.18,205.95s-3.58-34.58,10.97-68.59c14.09-32.91,45.16-65.28,112.91-65.28s98.72,32.28,112.84,65.14c14.64,34.07,11.04,68.77,11.04,68.77"/>
  <path class="cls-6" d="M86.05,138.99c19.48-48.42,64.3-67.27,113.94-67.22,49.6-.1,94.51,18.72,114.03,67.08.25.59-.03,1.27-.63,1.52-.44.18-.93.08-1.25-.23,0,0-.34-.33-.34-.33-4.47-4.3-8.47-8.49-12.82-12.16-11.68-10.43-25.64-18.73-39.92-23.46-1.39-.42-3.88-1.37-5.2-1.72-2.33-.53-4.78-1.24-7.07-1.89-2.85-.5-6.2-1.3-9.04-1.77,0,0-7.32-1.13-7.32-1.13-3.11-.22-6.24-.62-9.33-.99-1.16-.04-4.5-.21-5.72-.26-8.74-.63-18.22-.48-26.97-.24-2.94.29-6.54.4-9.5.55-3.08.35-6.22.77-9.32,1.01,0,0-7.32,1.13-7.32,1.13-2.18.35-5.02,1.07-7.21,1.44-14.74,3.34-28.07,8.61-41.05,17.41-3.7,2.58-7.91,5.7-11.32,8.67-5.01,4.19-9.4,8.68-14.42,13.55,0,0-.35.33-.35.33-.46.44-1.2.43-1.64-.03-.33-.34-.41-.84-.23-1.25h0Z"/>
  <path class="cls-3" d="M79.72,205.88h-.04c-7.58.06-13.69,6.22-13.69,13.8v57.71c0,7.59,6.14,13.76,13.73,13.8h0c3.29,0,5.99-4.21,5.99-9.35v-66.6c0-5.15-2.69-9.35-5.99-9.35Z"/>
  <path class="cls-3" d="M98.38,191.42h-.06c-11.37.08-20.54,9.32-20.54,20.69v72.85c0,11.39,9.21,20.64,20.6,20.69h0c4.94,0,8.98-5.64,8.98-12.53v-89.17c0-6.89-4.04-12.53-8.98-12.53Z"/>
  <path class="cls-7" d="M134.85,191.42l-34.84.11s-11.96,58.28,0,114.1h34.84c7.41.01,13.48-5.63,13.48-12.52,0,0-4.89-29.12-4.89-44.16s4.89-45.01,4.89-45.01c0-6.89-6.07-12.53-13.48-12.53Z"/>
  <path class="cls-8" d="M137.82,293.12c-4.21-14.58-6.87-29.33-7.17-44.6.4-15.14,3-30.04,7.17-44.58.02,14.69-1.64,29.97-1.91,44.6.16,14.73,1.86,29.69,1.91,44.57h0Z"/>
  <g>
    <path class="cls-3" d="M320.34,291.19h.04c7.58-.06,13.69-6.22,13.69-13.8v-57.71c0-7.59-6.14-13.76-13.73-13.8h0c-3.29,0-5.99,4.21-5.99,9.35v66.6c0,5.15,2.69,9.35,5.99,9.35Z"/>
    <path class="cls-3" d="M301.68,305.64h.06c11.37-.08,20.54-9.32,20.54-20.69v-72.85c0-11.39-9.21-20.64-20.6-20.69h0c-4.94,0-8.98,5.64-8.98,12.53v89.17c0,6.89,4.04,12.53,8.98,12.53Z"/>
    <path class="cls-7" d="M265.21,305.64l34.84-.11s11.96-58.28,0-114.1h-34.84c-7.41-.01-13.48,5.63-13.48,12.52,0,0,4.89,29.12,4.89,44.16s-4.89,45.01-4.89,45.01c0,6.89,6.07,12.53,13.48,12.53Z"/>
    <path class="cls-8" d="M262.24,203.95c4.21,14.58,6.87,29.33,7.17,44.6-.4,15.14-3,30.04-7.17,44.58-.02-14.69,1.64-29.97,1.91-44.6-.16-14.73-1.86-29.69-1.91-44.57h0Z"/>
  </g>
  <path class="cls-2" d="M200.01,376.14s6.68-42.86-39.55-42.86-70.89-6.91-70.89-43.43"/>
  <g>
    <g>
      <line class="cls-4" x1="156.48" y1="248.47" x2="178.5" y2="248.47"/>
      <line class="cls-4" x1="154.58" y1="233.46" x2="175.28" y2="223.47"/>
      <line class="cls-4" x1="154.58" y1="263.95" x2="175.28" y2="273.94"/>
    </g>
    <g>
      <line class="cls-4" x1="243.52" y1="248.94" x2="221.5" y2="248.94"/>
      <line class="cls-4" x1="245.42" y1="263.95" x2="224.72" y2="273.94"/>
      <line class="cls-4" x1="245.42" y1="233.46" x2="224.72" y2="223.47"/>
    </g>
  </g>
</svg>