<?xml version="1.0" encoding="UTF-8"?>
<svg id="Layer_1" data-name="Layer 1" xmlns="http://www.w3.org/2000/svg" viewBox="0 0 400 400">
  <defs>
    <style>
      .cls-1, .cls-2, .cls-3, .cls-4, .cls-5, .cls-6 {
        stroke: #3c1a53;
        stroke-width: 5px;
      }

      .cls-1, .cls-3 {
        fill: #cbdced;
      }

      .cls-1, .cls-6 {
        stroke-miterlimit: 10;
      }

      .cls-2 {
        fill: #f57c75;
      }

      .cls-2, .cls-3, .cls-4, .cls-5 {
        stroke-linecap: round;
        stroke-linejoin: round;
      }

      .cls-4, .cls-6 {
        fill: #e8e3db;
      }

      .cls-5 {
        fill: none;
      }

      .cls-7 {
        fill: #3c1a53;
      }
    </style>
  </defs>
  <circle class="cls-1" cx="200" cy="200" r="176.14"/>
  <path class="cls-6" d="M292.13,281.53c-.19-64.97-41.36-117.56-92.13-117.56s-91.95,52.6-92.13,117.56c-13.11,1.03-23.45,12.64-23.45,26.84s11.34,26.94,25.32,26.94c2.64,0,5.19-.43,7.58-1.23,4.09,10.63,9.4,20.34,15.68,28.86,20.65,8.5,43.27,13.2,66.99,13.2s46.34-4.7,66.99-13.2c6.28-8.53,11.59-18.24,15.68-28.86,2.39.8,4.94,1.23,7.58,1.23,13.99,0,25.32-12.06,25.32-26.94s-10.34-25.82-23.45-26.84Z"/>
  <path class="cls-2" d="M200,163.96c-50.89,0-92.14,52.83-92.14,118,0,0,42.03-125.01,93.22-66.28,50-58.73,91.06,66.28,91.06,66.28,0-65.17-41.25-118-92.14-118Z"/>
  <g>
    <path class="cls-5" d="M148.54,277.65s4.31,8.62,17.78,8.62,18.86-9.16,18.86-9.16"/>
    <path class="cls-5" d="M251.46,277.65s-4.31,8.62-17.78,8.62-18.86-9.16-18.86-9.16"/>
  </g>
  <g>
    <path class="cls-3" d="M213.4,143.69c0,4.95-5.16,8.96-11.51,8.96s-11.51-4.01-11.51-8.96"/>
    <path class="cls-3" d="M215.04,135.86c0,5.54-5.89,10.04-13.16,10.04s-13.16-4.49-13.16-10.04"/>
    <path class="cls-3" d="M217.61,127.03c0,6.26-7.04,11.34-15.72,11.34s-15.72-5.08-15.72-11.34"/>
    <path class="cls-4" d="M233.61,88.7c0,17.09-14.2,41.91-31.72,41.91s-31.72-24.82-31.72-41.91,14.2-30.95,31.72-30.95,31.72,13.86,31.72,30.95Z"/>
    <path class="cls-5" d="M194.95,120.51l-5.64-17.27s5.11-4.23,12.34-4.23,12.81,4.23,12.81,4.23l-5.64,17.27"/>
  </g>
  <g>
    <g>
      <path class="cls-7" d="M236.45,156.91c3-6.62,6.44-13.8,9.71-20.32,2.35-5.13,4.77-10.24,8.49-14.55,1.19-1.48,2.46-2.91,3.95-4.22.16-.15.44,0,.39.22-1.21,5.6-3.46,10.87-6.57,15.64-1.87,2.67-4.4,6.62-6.17,9.41-2.99,4.56-6.31,9.57-9.41,14.03-.14.21-.51.02-.39-.22h0Z"/>
      <path class="cls-7" d="M262.37,173.16c3.66-4.91,7.78-10.19,11.66-14.95,3.76-5.16,8.04-9.99,13.79-13.01.17-.09.39.1.3.28-1.93,4.44-4.72,8.39-8.19,11.72-2.05,1.83-4.87,4.59-6.86,6.54-3.33,3.17-7.01,6.64-10.4,9.7-.17.16-.46-.08-.3-.28h0Z"/>
      <path class="cls-7" d="M280.05,195.24c3.72-2.61,7.49-5.13,11.34-7.55,1.92-1.21,3.68-2.69,5.79-3.55,2.15-.9,4.33-1.64,6.71-1.86.16-.02.27.18.17.31-2.92,3.71-7.02,5.89-11.34,7.55-4.12,1.91-8.29,3.7-12.5,5.4-.18.08-.34-.19-.17-.31h0Z"/>
    </g>
    <g>
      <path class="cls-7" d="M163.16,157.13c-4.13-5.98-8.53-12.61-12.44-18.77-4.37-6.18-8.23-12.77-9.71-20.32-.05-.21.23-.37.39-.22,4.18,3.92,7.55,8.55,10.04,13.67,1.33,2.98,3.42,7.17,4.9,10.13,2.37,4.91,4.97,10.33,7.2,15.28.11.23-.24.45-.39.22h0Z"/>
      <path class="cls-7" d="M137.32,173.44c-4.54-4.1-9.41-8.7-13.79-13.01-4.79-4.23-9.19-8.94-11.66-14.95-.08-.18.13-.37.3-.28,4.24,2.34,7.91,5.48,10.9,9.25,1.63,2.21,4.11,5.28,5.87,7.44,2.84,3.61,5.96,7.6,8.68,11.27.14.19-.13.45-.3.28h0Z"/>
      <path class="cls-7" d="M119.78,195.55c-4.21-1.7-8.38-3.5-12.5-5.4-4.31-1.66-8.42-3.84-11.34-7.55-.1-.12,0-.33.17-.31,4.7.43,8.77,2.69,12.5,5.4,3.84,2.42,7.62,4.94,11.34,7.55.16.11.02.39-.17.31h0Z"/>
    </g>
  </g>
</svg>