<?xml version="1.0" encoding="UTF-8"?>
<svg id="Layer_1" data-name="Layer 1" xmlns="http://www.w3.org/2000/svg" viewBox="0 0 400 400">
  <defs>
    <style>
      .cls-1 {
        fill: #f57c75;
      }

      .cls-1, .cls-2, .cls-3, .cls-4, .cls-5, .cls-6, .cls-7, .cls-8 {
        stroke: #3c1a53;
        stroke-width: 5px;
      }

      .cls-1, .cls-4, .cls-5, .cls-8 {
        stroke-miterlimit: 10;
      }

      .cls-2, .cls-3, .cls-4, .cls-5, .cls-6, .cls-7, .cls-8 {
        stroke-linecap: round;
      }

      .cls-2, .cls-3, .cls-6, .cls-7 {
        stroke-linejoin: round;
      }

      .cls-2, .cls-9 {
        fill: #3c1a53;
      }

      .cls-3, .cls-4 {
        fill: #e8e3db;
      }

      .cls-5 {
        fill: #3f778c;
      }

      .cls-6 {
        fill: #cc9a0e;
      }

      .cls-7 {
        fill: #cbdced;
      }

      .cls-8 {
        fill: none;
      }
    </style>
  </defs>
  <circle class="cls-1" cx="200" cy="200" r="176.14"/>
  <g>
    <rect class="cls-5" x="61.51" y="71.69" width="202.84" height="276.7" rx="12.05" ry="12.05" transform="translate(-61.75 67.97) rotate(-19.89)"/>
    <rect class="cls-4" x="75.72" y="74.29" width="202.84" height="276.7" rx="12.05" ry="12.05" transform="translate(-61.78 72.96) rotate(-19.89)"/>
    <g>
      <g>
        <path class="cls-8" d="M37.82,107.64c-1.15-7.3.84-13.58,5.27-15.19,5.54-2,12.8,4.04,16.22,13.49,3.42,9.45,1.71,18.74-3.83,20.75"/>
        <circle class="cls-9" cx="55.03" cy="127.22" r="6.76"/>
      </g>
      <g>
        <path class="cls-8" d="M60.83,99.31c-1.15-7.3.84-13.58,5.27-15.19,5.54-2,12.8,4.04,16.22,13.49,3.42,9.45,1.71,18.74-3.83,20.75"/>
        <circle class="cls-9" cx="78.04" cy="118.89" r="6.76"/>
      </g>
      <g>
        <path class="cls-8" d="M83.84,90.98c-1.15-7.3.84-13.58,5.27-15.19,5.54-2,12.8,4.04,16.22,13.49,3.42,9.45,1.71,18.74-3.83,20.75"/>
        <circle class="cls-9" cx="101.05" cy="110.56" r="6.76"/>
      </g>
      <g>
        <path class="cls-8" d="M106.85,82.66c-1.15-7.3.84-13.58,5.27-15.19,5.54-2,12.8,4.04,16.22,13.49,3.42,9.45,1.71,18.74-3.83,20.75"/>
        <circle class="cls-9" cx="124.06" cy="102.24" r="6.76"/>
      </g>
      <g>
        <path class="cls-8" d="M129.86,74.33c-1.15-7.3.84-13.58,5.27-15.19,5.54-2,12.8,4.04,16.22,13.49,3.42,9.45,1.71,18.74-3.83,20.75"/>
        <circle class="cls-9" cx="147.07" cy="93.91" r="6.76"/>
      </g>
      <g>
        <path class="cls-8" d="M152.88,66c-1.15-7.3.84-13.58,5.27-15.19,5.54-2,12.8,4.04,16.22,13.49,3.42,9.45,1.71,18.74-3.83,20.75"/>
        <circle class="cls-9" cx="170.08" cy="85.58" r="6.76"/>
      </g>
      <g>
        <path class="cls-8" d="M175.89,57.68c-1.15-7.3.84-13.58,5.27-15.19,5.54-2,12.8,4.04,16.22,13.49s1.71,18.74-3.83,20.75"/>
        <circle class="cls-9" cx="193.1" cy="77.26" r="6.76"/>
      </g>
      <g>
        <path class="cls-8" d="M198.9,49.35c-1.15-7.3.84-13.58,5.27-15.19,5.54-2,12.8,4.04,16.22,13.49,3.42,9.45,1.71,18.74-3.83,20.75"/>
        <circle class="cls-9" cx="216.11" cy="68.93" r="6.76"/>
      </g>
    </g>
    <path class="cls-4" d="M71.73,167.82c2.2-.8,157.73-57.07,157.73-57.07"/>
    <path class="cls-4" d="M79.96,190.56c2.2-.8,157.73-57.07,157.73-57.07"/>
    <path class="cls-4" d="M88.19,213.3c2.2-.8,157.73-57.07,157.73-57.07"/>
    <path class="cls-4" d="M96.69,236.78l78.21-28.3"/>
    <path class="cls-4" d="M105.98,262.45c1.59-.58,114.31-41.36,114.31-41.36"/>
    <path class="cls-4" d="M113.68,283.73c1.64-.59,117.66-42.58,117.66-42.58"/>
  </g>
  <g>
    <polygon class="cls-3" points="280.12 227.92 239.68 238.87 250.62 198.89 280.12 227.92"/>
    <path class="cls-6" d="M250.7,198.98l.02.02c-1.63,2.68-1.29,6.21,1.02,8.52s5.93,2.65,8.62.96l.26.26c-1.7,2.69-1.39,6.28.96,8.62s6.02,2.66,8.72.9l.22.22c-1.77,2.7-1.48,6.35.89,8.72s6.11,2.67,8.81.83h.02s63.99-63.98,63.99-63.98c-3.08-4.72-7.75-10.39-13.43-16.07-5.67-5.67-11.33-10.34-16.05-13.41l-64.04,64.43Z"/>
    <path class="cls-2" d="M344.23,164.04l5.21-5.21c.07-.07.13-.14.2-.21-3.08-4.72-7.75-10.39-13.42-16.06s-11.34-10.34-16.06-13.42c-.07.07-.14.13-.21.2l-5.19,5.22c4.71,3.08,10.38,7.74,16.05,13.41,5.68,5.68,10.35,11.35,13.43,16.07Z"/>
    <path class="cls-9" d="M330.66,148.1h0s0,.01.01.01h0Z"/>
    <path class="cls-7" d="M336.22,142.56c5.67,5.67,10.34,11.34,13.42,16.06,7.91-8.13,7.85-21.24-.2-29.28-8.04-8.04-21.16-8.1-29.28-.2,4.72,3.08,10.39,7.75,16.06,13.42Z"/>
    <path class="cls-9" d="M259.68,207.8l.12.12c-1.63,2.76-1.03,6.63,1.65,9.31s6.65,3.29,9.41,1.59l.21.2,65.25-65.25c-.06-.07-.12-.13-.18-.2-.34-.37-.68-.74-1.03-1.11-.14-.15-.27-.29-.41-.44-.29-.31-.59-.63-.89-.94-.15-.16-.3-.31-.45-.47-.31-.32-.62-.64-.93-.96-.14-.14-.28-.29-.42-.43-.45-.46-.9-.92-1.36-1.37h0c-.44-.44-.88-.88-1.32-1.31-.14-.14-.28-.28-.43-.41-.3-.29-.6-.58-.9-.87-.17-.16-.33-.32-.5-.48-.27-.26-.55-.52-.82-.77-.17-.16-.35-.33-.52-.49-.27-.25-.54-.5-.81-.75-.11-.1-.22-.2-.33-.31l-65.35,65.35Z"/>
    <path class="cls-9" d="M240.8,239.99l7.17-1.94c.65-3.66-.44-7.57-3.26-10.39-.14-.14-.28-.27-.42-.4l-3.48,12.73Z"/>
  </g>
</svg>