<?xml version="1.0" encoding="UTF-8"?>
<svg id="Layer_1" data-name="Layer 1" xmlns="http://www.w3.org/2000/svg" viewBox="0 0 400 400">
  <defs>
    <style>
      .cls-1 {
        fill: #3f778c;
        stroke-miterlimit: 10;
        stroke-width: 5px;
      }

      .cls-1, .cls-2, .cls-3, .cls-4 {
        stroke: #3c1a53;
      }

      .cls-2 {
        fill: #cbdced;
      }

      .cls-2, .cls-3, .cls-4 {
        stroke-linecap: round;
        stroke-linejoin: round;
        stroke-width: 5.53px;
      }

      .cls-3 {
        fill: #e8e3db;
      }

      .cls-4 {
        fill: none;
      }

      .cls-5 {
        fill: #cc9a0e;
      }
    </style>
  </defs>
  <circle class="cls-1" cx="200" cy="200" r="176.14"/>
  <g>
    <path class="cls-5" d="M199.73,130.62c-.79-15-1.46-31.45-1.91-46.52-.59-11.64-1.09-23.28.26-34.89.38-3.88.86-7.75,1.65-11.63.03-.15.18-.25.33-.22.11.02.2.11.22.22.78,3.88,1.27,7.75,1.65,11.63,1.35,11.61.86,23.25.26,34.89-.17,5.79-.57,17.47-.82,23.26-.37,7.75-.66,15.51-1.09,23.26,0,.15-.14.27-.29.26-.14,0-.25-.12-.26-.26h0Z"/>
    <path class="cls-5" d="M150.14,147.64c-7.26-11.67-15.06-24.57-22.05-36.47-5.62-9.07-11.15-18.19-15.05-28.16-1.36-3.3-2.64-6.64-3.65-10.13-.04-.15.04-.3.19-.35.11-.03.22,0,.29.08,2.38,2.74,4.51,5.62,6.54,8.56,6.27,8.68,10.94,18.28,15.51,27.91,2.39,4.73,7.15,14.31,9.47,19.08,3.07,6.41,6.22,12.77,9.23,19.21.14.28-.31.56-.48.26h0Z"/>
    <path class="cls-5" d="M119.61,189.71c-9.82-5.08-20.48-10.81-30.17-16.21-7.61-3.96-15.18-8-21.74-13.61-2.23-1.81-4.41-3.71-6.43-5.87-.11-.11-.1-.29.01-.4.08-.07.18-.09.27-.07,2.84.82,5.52,1.89,8.15,3.06,2.64,1.15,5.2,2.42,7.72,3.77,7.08,3.86,14.45,9.75,21.4,14.16,6.84,4.69,14.37,9.89,21.08,14.7.26.18.01.63-.28.47h0Z"/>
    <path class="cls-5" d="M115.03,238.83c-8.61.79-18.05,1.46-26.71,1.91-9.04.91-17.89,1.07-26.71-1.91-.25-.08-.26-.47,0-.55,6.63-2.1,13.24-2.86,20.03-2.43,3.86.38,9.43.68,13.36.89,6.47.43,13.6.94,20.03,1.54.31.02.33.52,0,.55h0Z"/>
    <path class="cls-5" d="M132.2,280.35c-5.65,4.38-11.95,9.02-17.82,13.14-3.01,2.11-5.77,4.63-9.12,6.22-3.32,1.62-6.77,3.03-10.69,3.66-.25.05-.44-.26-.28-.47,3.57-4.64,7.79-8.12,12.84-10.7,2.92-1.34,7-3.48,9.87-5,4.79-2.42,10.07-5.06,14.92-7.32.28-.14.54.27.28.47h0Z"/>
    <path class="cls-5" d="M163.26,308.94c-2.34,5.92-5.08,12.32-7.75,18.13-1.36,2.97-2.31,6.18-4.24,8.87-1.88,2.7-3.97,5.28-6.87,7.43-.19.15-.51-.01-.48-.26.5-5.25,2.13-9.84,4.94-14.07,1.69-2.3,3.93-5.74,5.49-8.18,2.67-3.97,5.63-8.31,8.42-12.17.17-.25.6-.03.48.26h0Z"/>
    <path class="cls-5" d="M237.22,308.68c3.73,5.16,7.65,10.92,11.1,16.29,1.77,2.75,3.96,5.28,5.19,8.34,1.26,3.04,2.31,6.19,2.56,9.78.02.25-.28.42-.48.26-4.16-3.25-7.14-7.09-9.2-11.74-1.03-2.67-2.73-6.4-3.94-9.03-1.91-4.38-3.98-9.22-5.72-13.65-.12-.28.3-.52.48-.26h0Z"/>
    <path class="cls-5" d="M268.09,279.88c6.47,3.03,13.47,6.53,19.81,9.88,3.25,1.72,6.75,3.03,9.69,5.29,2.95,2.22,5.78,4.64,8.13,7.85.15.2-.03.52-.28.47-5.75-1.06-10.78-3.24-15.38-6.56-2.52-1.99-6.28-4.64-8.94-6.51-4.34-3.16-9.09-6.66-13.31-9.95-.25-.18,0-.61.28-.47h0Z"/>
    <path class="cls-5" d="M284.97,238.29c8.61-.79,18.05-1.46,26.71-1.91,9.04-.91,17.89-1.07,26.71,1.91.25.08.26.47,0,.55-6.63,2.1-13.24,2.86-20.03,2.43-3.86-.38-9.43-.68-13.36-.89-6.47-.43-13.6-.94-20.03-1.54-.31-.02-.33-.52,0-.55h0Z"/>
    <path class="cls-5" d="M280.11,189.25c8.99-6.42,18.96-13.31,28.18-19.47,6.99-4.97,14.04-9.87,22.02-13.16,2.63-1.16,5.31-2.24,8.15-3.06.15-.04.31.04.35.19.03.1,0,.2-.07.27-2.02,2.15-4.2,4.05-6.43,5.87-2.22,1.83-4.53,3.52-6.87,5.15-6.66,4.54-15.26,8.43-22.36,12.6-7.29,3.95-15.35,8.28-22.69,12.07-.13.07-.3.02-.37-.12-.06-.12-.02-.27.08-.35h0Z"/>
    <path class="cls-5" d="M249.38,147.38c5.87-12.43,12.49-25.97,18.7-38.3,4.58-9.63,9.24-19.23,15.51-27.91,2.03-2.93,4.15-5.82,6.54-8.56.1-.12.28-.13.39-.03.08.07.11.19.09.29-1.01,3.49-2.28,6.84-3.65,10.13-3.9,9.97-9.43,19.09-15.05,28.16-2.68,4.58-8.16,13.76-10.91,18.3-3.72,6.05-7.37,12.15-11.14,18.17-.16.27-.63.04-.48-.26h0Z"/>
  </g>
  <g>
    <path class="cls-2" d="M233.35,320.64c0,14.34-14.93,25.96-33.35,25.96s-33.35-11.62-33.35-25.96"/>
    <path class="cls-2" d="M238.11,305.02c0,16.06-17.06,29.08-38.11,29.08s-38.11-13.02-38.11-29.08"/>
    <path class="cls-2" d="M245.54,284.86c0,18.14-20.39,32.84-45.54,32.84s-45.54-14.7-45.54-32.84"/>
    <path class="cls-3" d="M291.88,181.77c0,49.51-41.14,121.39-91.88,121.39s-91.88-71.88-91.88-121.39,41.14-89.64,91.88-89.64,91.88,40.13,91.88,89.64Z"/>
    <path class="cls-4" d="M179.92,285.38l-16.33-61.51s14.8-12.25,35.73-12.25,37.09,12.25,37.09,12.25l-16.33,61.51"/>
  </g>
</svg>