<?xml version="1.0" encoding="UTF-8"?>
<svg id="Layer_1" data-name="Layer 1" xmlns="http://www.w3.org/2000/svg" viewBox="0 0 400 400">
  <defs>
    <style>
      .cls-1 {
        fill: #cbdced;
      }

      .cls-1, .cls-2, .cls-3, .cls-4 {
        stroke: #3c1a53;
        stroke-linecap: round;
        stroke-linejoin: round;
      }

      .cls-1, .cls-3 {
        stroke-width: 3.64px;
      }

      .cls-5 {
        fill: #cc9a0e;
        stroke: #3c1a53;
        stroke-miterlimit: 10;
        stroke-width: 5px;
      }

      .cls-6 {
        fill: #ca6661;
      }

      .cls-7 {
        fill: #9ca9b7;
      }

      .cls-2 {
        fill: #3f778c;
      }

      .cls-2, .cls-4 {
        stroke-width: 3.28px;
      }

      .cls-3 {
        fill: none;
      }

      .cls-4 {
        fill: #f57c75;
      }
    </style>
  </defs>
  <circle class="cls-5" cx="200" cy="200" r="176.14"/>
  <g>
    <path class="cls-4" d="M304.47,312.97h0c-13.89,13.89-38.72,11.1-54.68-5.68L117.07,167.65c-11.41-12-11.28-30.8,0-42.08h0c11.28-11.28,30.08-11.41,42.08,0l139.64,132.73c16.78,15.95,19.58,40.78,5.68,54.68Z"/>
    <path class="cls-2" d="M60.75,172.66s7.62-.15,14.23-6.76c6.61-6.61,5.52-13.92,6.69-15.09s53.05-64.12,90.25-72.52c15.18-3.43,24.1,0,24.1,0l2.72,6.61s-5.19.53-20.21,14.77c-18.75,17.79-12.6,24.73-5.05,33.05,7.54,8.32,17.73,17.73,17.73,17.73l-49.89,49.89-15.4-15.4s-12.52-11.74-24.58.31c-12.05,12.05-9.41,22.47-9.41,22.47l-31.19-35.08Z"/>
    <rect class="cls-2" x="49.97" y="170.12" width="37.04" height="52.14" rx="6.68" ry="6.68" transform="translate(-118.67 105.89) rotate(-45)"/>
  </g>
  <polygon class="cls-6" points="257.15 223.09 224.09 191.67 183.11 232.65 214.54 265.71 257.15 223.09"/>
  <g>
    <path class="cls-1" d="M214.94,144.08l-114.61,114.61c-14.71,14.71-14.71,38.79,0,53.51,14.72,14.72,38.79,14.72,53.51,0l115.16-115.16c.15-.15.3-.31.45-.46,9.26-.04,18.78-2.23,27.77-6.79,20-10.16,32.07-29.41,33.06-49.18l-33,16.1c-9.88,5.02-21.96,1.07-26.98-8.81l-4.83-9.52c-5.02-9.88-1.07-21.96,8.81-26.98l33-16.1c-16.54-10.87-39.21-12.49-59.21-2.33-20.65,10.48-32.85,30.67-33.12,51.1ZM115.42,276.63c5.78-5.78,15.16-5.78,20.94,0s5.78,15.16,0,20.94c-5.78,5.78-15.16,5.78-20.94,0-5.78-5.78-5.78-15.16,0-20.94Z"/>
    <path class="cls-3" d="M233.9,173.61c-4.25-4.25-11.2-4.25-15.45,0l-79.36,79.36c-4.25,4.25-4.25,11.2,0,15.45l5.49,5.49c4.25,4.25,11.2,4.25,15.45,0"/>
  </g>
  <path class="cls-7" d="M140.25,254.31l79.55-79.39c4.25-4.25,8.79-4.11,13.04.14,0,0-.8-12.89-92.59,79.25Z"/>
</svg>