<?xml version="1.0" encoding="UTF-8"?>
<svg id="Layer_1" data-name="Layer 1" xmlns="http://www.w3.org/2000/svg" viewBox="0 0 400 400">
  <defs>
    <style>
      .cls-1 {
        fill: #3f778c;
      }

      .cls-1, .cls-2 {
        stroke: #3c1a53;
        stroke-width: 6px;
      }

      .cls-1, .cls-3 {
        stroke-miterlimit: 10;
      }

      .cls-2 {
        fill: #e8e3db;
        stroke-linecap: round;
        stroke-linejoin: round;
      }

      .cls-3 {
        fill: #cbdced;
        stroke: #3c1a53;
        stroke-width: 5px;
      }

      .cls-4 {
        fill: #3c1a53;
      }
    </style>
  </defs>
  <circle class="cls-1" cx="200" cy="200" r="176.14"/>
  <path class="cls-2" d="M328.72,214.08s12.42-3.95,11.29-13.55-20.89-27.67-29.36-35.01c-5.08-11.01-10.16-35.01-10.16-35.01,0,0,.85-29.36-38.12-55.91-29.65-19.48-88.09-17.51-123.67-7.62-44.05,15.53-56.75,39.81-60.99,81.32-4.24,41.51,43.2,116.05,33.04,146.54-5.71,17.12-14.09,30.77-22.59,41.25,30.42,25.03,69.37,40.06,111.84,40.06,4.42,0,8.81-.17,13.15-.49,2.82-6.92,29.74-54.28,39.34-64.44,9.6-10.16,44.61-9.04,60.42-16.38,15.81-7.34,9.6-23.72,5.65-28.8s.56-13.55,2.26-18.07-2.82-5.65-2.82-5.65l5.08-4.52s-1.13-6.78-2.82-14.12c-1.69-7.34,8.47-9.6,8.47-9.6Z"/>
  <g>
    <g>
      <path class="cls-3" d="M159.21,230.9l2.35,4.08c2.07,3.58,6.69,4.82,10.27,2.75l2.68-1.55c5.47,5.75,12.56,9.94,20.53,11.86v3.09c0,4.13,3.38,7.52,7.52,7.52h4.71c4.13,0,7.52-3.38,7.52-7.52v-3.09c7.97-1.92,15.06-6.11,20.53-11.86l2.68,1.55c3.58,2.07,8.2.83,10.27-2.75l2.35-4.08c2.07-3.58.83-8.2-2.75-10.27l-2.67-1.54c1.11-3.76,1.7-7.74,1.7-11.86s-.6-8.1-1.7-11.86l2.67-1.54c3.58-2.07,4.82-6.69,2.75-10.27l-2.35-4.08c-2.07-3.58-6.69-4.82-10.27-2.75l-2.68,1.55c-5.47-5.75-12.56-9.94-20.53-11.86v-3.09c0-4.13-3.38-7.52-7.52-7.52h-4.71c-4.13,0-7.52,3.38-7.52,7.52v3.09c-7.97,1.92-15.06,6.11-20.53,11.86l-2.68-1.55c-3.58-2.07-8.2-.83-10.27,2.75l-2.35,4.08c-2.07,3.58-.83,8.2,2.75,10.27l2.67,1.54c-1.11,3.76-1.7,7.74-1.7,11.86s.6,8.1,1.7,11.86l-2.67,1.54c-3.58,2.07-4.82,6.69-2.75,10.27ZM179.49,207.23c0-14.04,11.38-25.42,25.42-25.42,14.04,0,25.42,11.38,25.42,25.42s-11.38,25.42-25.42,25.42c-14.04,0-25.42-11.38-25.42-25.42Z"/>
      <g>
        <path class="cls-4" d="M201.19,201.05c2.77-1.68,6.43-1.32,8.83,1.07s2.75,6.06,1.07,8.83l-9.9-9.9Z"/>
        <path class="cls-4" d="M208.65,213.4c-2.77,1.68-6.43,1.32-8.83-1.07s-2.75-6.06-1.07-8.83l9.9,9.9Z"/>
      </g>
    </g>
    <g>
      <path class="cls-3" d="M180.77,169.32l3.03-2.53c2.66-2.22,3.02-6.22.79-8.88l-1.66-1.99c3.96-5.35,6.4-11.81,6.84-18.67l2.55-.45c3.42-.6,5.72-3.88,5.13-7.3l-.68-3.89c-.6-3.42-3.88-5.72-7.3-5.13l-2.55.45c-2.74-6.31-7.22-11.56-12.76-15.25l.89-2.44c1.19-3.26-.5-6.9-3.75-8.09l-3.71-1.36c-3.26-1.19-6.9.5-8.09,3.75l-.89,2.43c-3.27-.37-6.64-.29-10.04.3s-6.6,1.66-9.55,3.11l-1.66-1.99c-2.22-2.66-6.22-3.02-8.88-.79l-3.03,2.53c-2.66,2.22-3.02,6.22-.79,8.88l1.66,1.99c-3.96,5.35-6.4,11.81-6.84,18.67l-2.55.45c-3.42.6-5.72,3.88-5.13,7.3l.68,3.89c.6,3.42,3.88,5.72,7.3,5.13l2.55-.45c2.74,6.31,7.22,11.56,12.76,15.25l-.89,2.44c-1.19,3.26.5,6.9,3.75,8.09l3.71,1.36c3.26,1.19,6.9-.5,8.09-3.75l.89-2.43c3.27.37,6.64.29,10.04-.3s6.6-1.66,9.55-3.11l1.66,1.99c2.22,2.66,6.22,3.02,8.88.79ZM158.29,155.98c-11.6,2.02-22.65-5.74-24.67-17.34-2.02-11.6,5.74-22.65,17.34-24.67s22.65,5.74,24.67,17.34c2.02,11.6-5.74,22.65-17.34,24.67Z"/>
      <g>
        <path class="cls-4" d="M150.06,138.94c-1.79-2.05-2.02-5.13-.39-7.45,1.63-2.32,4.61-3.15,7.14-2.16l-6.75,9.61Z"/>
        <path class="cls-4" d="M159.19,131c1.79,2.05,2.02,5.13.39,7.45s-4.61,3.15-7.14,2.16l6.75-9.61Z"/>
      </g>
    </g>
  </g>
</svg>