<?xml version="1.0" encoding="UTF-8"?>
<svg id="Layer_1" data-name="Layer 1" xmlns="http://www.w3.org/2000/svg" viewBox="0 0 400 400">
  <defs>
    <style>
      .cls-1, .cls-2 {
        fill: #cbdced;
      }

      .cls-3, .cls-4 {
        fill: #f04e67;
      }

      .cls-5, .cls-4 {
        stroke-width: 4.58px;
      }

      .cls-5, .cls-4, .cls-6, .cls-2, .cls-7 {
        stroke: #3c1a53;
        stroke-linecap: round;
      }

      .cls-5, .cls-4, .cls-7 {
        stroke-miterlimit: 10;
      }

      .cls-5, .cls-8 {
        fill: #e8e3db;
      }

      .cls-6 {
        fill: #3c1a53;
        stroke-width: 2.53px;
      }

      .cls-6, .cls-2 {
        stroke-linejoin: round;
      }

      .cls-2 {
        stroke-width: 2.19px;
      }

      .cls-9 {
        fill: #3c1a53;
      }

      .cls-7 {
        fill: none;
        stroke-width: 3.61px;
      }
    </style>
  </defs>
  <g>
    <path class="cls-8" d="M200,371.28c-94.44,0-171.28-76.84-171.28-171.28S105.56,28.72,200,28.72s171.28,76.84,171.28,171.28-76.84,171.28-171.28,171.28Z"/>
    <path class="cls-3" d="M200,36.22c43.75,0,84.88,17.04,115.81,47.97,30.93,30.93,47.97,72.06,47.97,115.81s-17.04,84.88-47.97,115.81c-30.93,30.93-72.06,47.97-115.81,47.97s-84.88-17.04-115.81-47.97c-30.93-30.93-47.97-72.06-47.97-115.81s17.04-84.88,47.97-115.81c30.93-30.93,72.06-47.97,115.81-47.97M200,21.22C101.26,21.22,21.22,101.26,21.22,200s80.04,178.78,178.78,178.78,178.78-80.04,178.78-178.78S298.74,21.22,200,21.22h0Z"/>
  </g>
  <g>
    <rect class="cls-5" x="87.59" y="43.37" width="227.97" height="322.42" rx="15.34" ry="15.34" transform="translate(-28.19 32.27) rotate(-8.56)"/>
    <rect class="cls-4" x="92.49" y="35.68" width="227.97" height="322.42" rx="12" ry="12" transform="translate(-26.99 32.91) rotate(-8.56)"/>
    <g>
      <g>
        <path class="cls-7" d="M66.69,77.61c-1.31.13-2.69.23-4.02.29-3.75.18-7.08.08-7.19-.56-.21-1.19,5.41-3.17,12.56-4.41s13.1-1.28,13.31-.09"/>
        <circle class="cls-9" cx="81.97" cy="72.91" r="4.88"/>
      </g>
      <g>
        <path class="cls-7" d="M68.3,88.35c-1.31.13-2.69.23-4.02.29-3.75.18-7.08.08-7.19-.56-.21-1.19,5.41-3.17,12.56-4.41,7.14-1.24,13.1-1.28,13.31-.09"/>
        <circle class="cls-9" cx="83.58" cy="83.64" r="4.88"/>
      </g>
      <g>
        <path class="cls-7" d="M69.92,99.08c-1.31.13-2.69.23-4.02.29-3.75.18-7.08.08-7.19-.56-.21-1.19,5.41-3.17,12.56-4.41,7.14-1.24,13.1-1.28,13.31-.09"/>
        <circle class="cls-9" cx="85.2" cy="94.38" r="4.88"/>
      </g>
      <g>
        <path class="cls-7" d="M71.53,109.82c-1.31.13-2.69.23-4.02.29-3.75.18-7.08.08-7.19-.56-.21-1.19,5.41-3.17,12.56-4.41,7.14-1.24,13.1-1.28,13.31-.09"/>
        <circle class="cls-9" cx="86.81" cy="105.11" r="4.88"/>
      </g>
      <g>
        <path class="cls-7" d="M73.15,120.55c-1.31.13-2.69.23-4.02.29-3.75.18-7.08.08-7.19-.56-.21-1.19,5.41-3.17,12.56-4.41,7.14-1.24,13.1-1.28,13.31-.09"/>
        <circle class="cls-9" cx="88.43" cy="115.85" r="4.88"/>
      </g>
      <g>
        <path class="cls-7" d="M74.76,131.29c-1.31.13-2.69.23-4.02.29-3.75.18-7.08.08-7.19-.56-.21-1.19,5.41-3.17,12.56-4.41,7.14-1.24,13.1-1.28,13.31-.09"/>
        <circle class="cls-9" cx="90.04" cy="126.58" r="4.88"/>
      </g>
      <g>
        <path class="cls-7" d="M76.38,142.02c-1.31.13-2.69.23-4.02.29-3.75.18-7.08.08-7.19-.56-.21-1.19,5.41-3.17,12.56-4.41,7.14-1.24,13.1-1.28,13.31-.09"/>
        <circle class="cls-9" cx="91.66" cy="137.32" r="4.88"/>
      </g>
      <g>
        <path class="cls-7" d="M77.99,152.76c-1.31.13-2.69.23-4.02.29-3.75.18-7.08.08-7.19-.56-.21-1.19,5.41-3.17,12.56-4.41s13.1-1.28,13.31-.09"/>
        <circle class="cls-9" cx="93.27" cy="148.05" r="4.88"/>
      </g>
      <g>
        <path class="cls-7" d="M79.61,163.49c-1.31.13-2.69.23-4.02.29-3.75.18-7.08.08-7.19-.56-.21-1.19,5.41-3.17,12.56-4.41,7.14-1.24,13.1-1.28,13.31-.09"/>
        <circle class="cls-9" cx="94.89" cy="158.79" r="4.88"/>
      </g>
      <g>
        <path class="cls-7" d="M81.22,174.23c-1.31.13-2.69.23-4.02.29-3.75.18-7.08.08-7.19-.56-.21-1.19,5.41-3.17,12.56-4.41,7.14-1.24,13.1-1.28,13.31-.09"/>
        <circle class="cls-9" cx="96.5" cy="169.52" r="4.88"/>
      </g>
      <g>
        <path class="cls-7" d="M82.84,184.96c-1.31.13-2.69.23-4.02.29-3.75.18-7.08.08-7.19-.56-.21-1.19,5.41-3.17,12.56-4.41,7.14-1.24,13.1-1.28,13.31-.09"/>
        <circle class="cls-9" cx="98.12" cy="180.25" r="4.88"/>
      </g>
      <g>
        <path class="cls-7" d="M84.45,195.7c-1.31.13-2.69.23-4.02.29-3.75.18-7.08.08-7.19-.56-.21-1.19,5.41-3.17,12.56-4.41s13.1-1.28,13.31-.09"/>
        <circle class="cls-9" cx="99.73" cy="190.99" r="4.88"/>
      </g>
      <g>
        <path class="cls-7" d="M86.07,206.43c-1.31.13-2.69.23-4.02.29-3.75.18-7.08.08-7.19-.56-.21-1.19,5.41-3.17,12.56-4.41,7.14-1.24,13.1-1.28,13.31-.09"/>
        <circle class="cls-9" cx="101.35" cy="201.72" r="4.88"/>
      </g>
      <g>
        <path class="cls-7" d="M87.68,217.17c-1.31.13-2.69.23-4.02.29-3.75.18-7.08.08-7.19-.56-.21-1.19,5.41-3.17,12.56-4.41,7.14-1.24,13.1-1.28,13.31-.09"/>
        <circle class="cls-9" cx="102.96" cy="212.46" r="4.88"/>
      </g>
      <g>
        <path class="cls-7" d="M89.3,227.9c-1.31.13-2.69.23-4.02.29-3.75.18-7.08.08-7.19-.56-.21-1.19,5.41-3.17,12.56-4.41,7.14-1.24,13.1-1.28,13.31-.09"/>
        <circle class="cls-9" cx="104.58" cy="223.19" r="4.88"/>
      </g>
      <g>
        <path class="cls-7" d="M90.91,238.64c-1.31.13-2.69.23-4.02.29-3.75.18-7.08.08-7.19-.56-.21-1.19,5.41-3.17,12.56-4.41,7.14-1.24,13.1-1.28,13.31-.09"/>
        <circle class="cls-9" cx="106.19" cy="233.93" r="4.88"/>
      </g>
      <g>
        <path class="cls-7" d="M92.53,249.37c-1.31.13-2.69.23-4.02.29-3.75.18-7.08.08-7.19-.56-.21-1.19,5.41-3.17,12.56-4.41,7.14-1.24,13.1-1.28,13.31-.09"/>
        <circle class="cls-9" cx="107.81" cy="244.66" r="4.88"/>
      </g>
      <g>
        <path class="cls-7" d="M94.14,260.11c-1.31.13-2.69.23-4.02.29-3.75.18-7.08.08-7.19-.56-.21-1.19,5.41-3.17,12.56-4.41,7.14-1.24,13.1-1.28,13.31-.09"/>
        <circle class="cls-9" cx="109.42" cy="255.4" r="4.88"/>
      </g>
      <g>
        <path class="cls-7" d="M95.76,270.84c-1.31.13-2.69.23-4.02.29-3.75.18-7.08.08-7.19-.56-.21-1.19,5.41-3.17,12.56-4.41,7.14-1.24,13.1-1.28,13.31-.09"/>
        <circle class="cls-9" cx="111.04" cy="266.13" r="4.88"/>
      </g>
      <g>
        <path class="cls-7" d="M97.37,281.58c-1.31.13-2.69.23-4.02.29-3.75.18-7.08.08-7.19-.56-.21-1.19,5.41-3.17,12.56-4.41,7.14-1.24,13.1-1.28,13.31-.09"/>
        <circle class="cls-9" cx="112.65" cy="276.87" r="4.88"/>
      </g>
      <g>
        <path class="cls-7" d="M98.99,292.31c-1.31.13-2.69.23-4.02.29-3.75.18-7.08.08-7.19-.56-.21-1.19,5.41-3.17,12.56-4.41,7.14-1.24,13.1-1.28,13.31-.09"/>
        <circle class="cls-9" cx="114.27" cy="287.6" r="4.88"/>
      </g>
      <g>
        <path class="cls-7" d="M100.6,303.05c-1.31.13-2.69.23-4.02.29-3.75.18-7.08.08-7.19-.56-.21-1.19,5.41-3.17,12.56-4.41,7.14-1.24,13.1-1.28,13.31-.09"/>
        <circle class="cls-9" cx="115.88" cy="298.34" r="4.88"/>
      </g>
      <g>
        <path class="cls-7" d="M102.22,313.78c-1.31.13-2.69.23-4.02.29-3.75.18-7.08.08-7.19-.56-.21-1.19,5.41-3.17,12.56-4.41,7.14-1.24,13.1-1.28,13.31-.09"/>
        <circle class="cls-9" cx="117.5" cy="309.07" r="4.88"/>
      </g>
      <g>
        <path class="cls-7" d="M103.83,324.52c-1.31.13-2.69.23-4.02.29-3.75.18-7.08.08-7.19-.56-.21-1.19,5.41-3.17,12.56-4.41,7.14-1.24,13.1-1.28,13.31-.09"/>
        <circle class="cls-9" cx="119.11" cy="319.81" r="4.88"/>
      </g>
      <g>
        <path class="cls-7" d="M105.45,335.25c-1.31.13-2.69.23-4.02.29-3.75.18-7.08.08-7.19-.56-.21-1.19,5.41-3.17,12.56-4.41,7.14-1.24,13.1-1.28,13.31-.09"/>
        <circle class="cls-9" cx="120.73" cy="330.54" r="4.88"/>
      </g>
      <g>
        <path class="cls-7" d="M107.06,345.99c-1.31.13-2.69.23-4.02.29-3.75.18-7.08.08-7.19-.56-.21-1.19,5.41-3.17,12.56-4.41,7.14-1.24,13.1-1.28,13.31-.09"/>
        <circle class="cls-9" cx="122.34" cy="341.28" r="4.88"/>
      </g>
      <g>
        <path class="cls-7" d="M108.68,356.72c-1.31.13-2.69.23-4.02.29-3.75.18-7.08.08-7.19-.56-.21-1.19,5.41-3.17,12.56-4.41,7.14-1.24,13.1-1.28,13.31-.09"/>
        <circle class="cls-9" cx="123.96" cy="352.01" r="4.88"/>
      </g>
    </g>
    <rect class="cls-8" x="141.44" y="94.17" width="107.11" height="52.75" rx="12" ry="12" transform="translate(-15.76 30.35) rotate(-8.56)"/>
    <g>
      <g>
        <path class="cls-3" d="M327.82,254.75l-2.28-.2c-.06,0-.12-.02-.18-.03-5.06-1.38-11.13-2.44-17.56-3.06-3.94-.38-7.79-.57-11.44-.57-2.91,0-5.62.12-8.04.37-.03,0-.07,0-.1,0-.03,0-.44-.03-.44-.03-.28-.02-.53-.16-.71-.37-.18-.21-.26-.49-.24-.76l8.18-87.93c.05-.49.43-.88.92-.94,2.66-.3,5.65-.45,8.9-.45,3.71,0,7.63.2,11.65.58,7.55.73,14.73,2.07,20.22,3.79.47.15.77.6.72,1.09l-8.43,87.57c-.05.54-.5.94-1.03.94-.03,0-.12,0-.12,0Z"/>
        <path class="cls-9" d="M304.81,161.82c3.58,0,7.48.19,11.55.58,7.77.75,14.78,2.11,20.01,3.75l-8.43,87.57h-.02s-.84-.08-2.29-.2c-4.91-1.34-11.04-2.44-17.73-3.09-4.07-.39-7.97-.58-11.54-.58-2.97,0-5.72.13-8.15.37-.12-.01-.24-.02-.36-.03l8.18-87.93c2.58-.29,5.55-.44,8.78-.44M304.81,159.74c-3.29,0-6.32.15-9.01.45-.98.11-1.75.89-1.84,1.87l-8.18,87.93c-.05.55.12,1.1.47,1.52.35.42.86.69,1.41.74l.36.03c.06,0,.12,0,.18,0,.07,0,.14,0,.21-.01,2.39-.24,5.06-.36,7.94-.36,3.61,0,7.43.19,11.34.57,6.37.61,12.38,1.66,17.39,3.02.12.03.24.05.37.07l2.29.2c.06,0,.12,0,.18,0,1.06,0,1.98-.8,2.09-1.88l8.43-87.57c.09-.98-.51-1.89-1.45-2.18-5.56-1.74-12.81-3.1-20.43-3.84-4.05-.39-8-.59-11.75-.59h0Z"/>
      </g>
      <g>
        <path class="cls-1" d="M336.38,167.19c-.1,0-.21-.02-.31-.05-5.36-1.68-12.39-3-19.79-3.71-3.95-.38-7.8-.57-11.45-.57-3.17,0-6.09.15-8.67.43-.04,0-.08,0-.12,0-.27,0-.53-.11-.73-.3-.22-.22-.34-.53-.31-.84l.67-7.13.03-.29c.05-.49.43-.87.92-.92,2.66-.3,5.65-.45,8.91-.45,3.72,0,7.64.2,11.66.58,7.54.73,14.72,2.07,20.21,3.79.46.15.76.59.72,1.08l-.02.29-.69,7.13c-.03.31-.2.59-.46.77-.17.11-.37.17-.57.17Z"/>
        <path class="cls-9" d="M305.53,154.41c3.58,0,7.48.19,11.55.58,7.76.75,14.77,2.11,20,3.75,0,.09-.01.18-.02.28l-.69,7.13c-5.23-1.64-12.24-3-20.01-3.75-4.07-.39-7.98-.58-11.55-.58-3.23,0-6.2.15-8.78.44l.67-7.13c0-.09.02-.18.03-.28,2.59-.29,5.55-.44,8.79-.44M305.53,152.34c-3.29,0-6.33.15-9.02.45-.97.11-1.73.87-1.83,1.84v.08c-.02.08-.03.15-.04.23l-.67,7.14c-.06.62.17,1.24.61,1.67.39.38.91.6,1.46.6.08,0,.15,0,.23-.01,2.54-.28,5.42-.43,8.55-.43,3.62,0,7.44.19,11.35.57,7.34.71,14.29,2.01,19.58,3.67.2.06.41.09.62.09.4,0,.8-.12,1.15-.35.52-.35.86-.91.92-1.53l.69-7.13c0-.08.01-.15.02-.23v-.08c.09-.97-.52-1.86-1.44-2.15-5.56-1.74-12.81-3.1-20.42-3.83-4.05-.39-8-.59-11.75-.59h0Z"/>
      </g>
      <path class="cls-9" d="M316.35,162.58h0s.01,0,.02,0h-.02Z"/>
      <g>
        <path class="cls-3" d="M337.09,159.78c-.1,0-.21-.02-.31-.05-5.36-1.68-12.38-2.99-19.79-3.71-3.95-.38-7.81-.57-11.46-.57-3.18,0-6.1.15-8.68.43-.04,0-.08,0-.12,0-.27,0-.54-.11-.73-.3-.22-.22-.33-.54-.3-.85,1.19-10.82,10.3-18.98,21.18-18.98.68,0,1.37.03,2.04.1,11.54,1.11,20.14,11.41,19.19,22.96-.03.31-.19.6-.46.78-.17.12-.38.18-.58.18Z"/>
        <path class="cls-9" d="M316.89,136.8c.64,0,1.29.03,1.94.09,11.01,1.06,19.16,10.86,18.26,21.85-5.23-1.64-12.23-3-20-3.75-4.08-.39-7.98-.58-11.55-.58-3.24,0-6.21.15-8.79.44,1.14-10.31,9.94-18.05,20.14-18.05M316.89,134.73h0c-11.41,0-20.96,8.56-22.21,19.9-.07.63.15,1.25.6,1.7.39.39.92.61,1.47.61.08,0,.15,0,.23-.01,2.54-.28,5.42-.43,8.56-.43,3.62,0,7.44.19,11.36.57,7.33.71,14.29,2.01,19.58,3.66.2.06.41.09.62.09.41,0,.81-.12,1.16-.35.52-.35.86-.92.91-1.55,1-12.11-8.03-22.92-20.13-24.08-.71-.07-1.43-.1-2.14-.1h0Z"/>
      </g>
      <g>
        <path class="cls-1" d="M304.09,288.19c-.45-.05-.84-.33-1.02-.75,0,0-4.02-9.15-8.04-18.31-2.01-4.58-4.01-9.17-5.51-12.62q-2.77-6.37-2.37-6.98c.21-.32.55-.53.93-.57,2.5-.25,5.29-.38,8.28-.38,3.72,0,7.64.2,11.66.58,6.49.62,14.06,1.95,19.3,3.38h0c.37.11.71.39.87.74.41.89.65,1.43-11.32,18.28-5.71,8.04-11.57,16.04-11.62,16.12-.24.33-.62.52-1.02.52-.05,0-.09,0-.14,0Z"/>
        <path class="cls-9" d="M296.36,249.85c3.57,0,7.47.19,11.54.58,6.69.64,14.17,2,19.09,3.34,1.44.13-22.76,33.16-22.76,33.16,0,0-16.13-36.7-16.02-36.7h0c2.43-.24,5.18-.37,8.15-.37M296.36,247.32c-3.03,0-5.86.13-8.4.39-.76.08-1.44.49-1.86,1.12-.77,1.16-.46,1.88.45,4.01.43,1.01,1.06,2.46,1.81,4.18,1.5,3.45,3.5,8.03,5.51,12.62,4.01,9.16,8.04,18.32,8.04,18.32.36.83,1.14,1.4,2.04,1.5.09.01.18.02.28.02.8,0,1.56-.38,2.04-1.04.06-.08,5.92-8.08,11.64-16.13,3.37-4.74,6.03-8.57,7.91-11.39,3.78-5.66,4.21-6.65,3.53-8.15-.33-.73-.98-1.26-1.75-1.45-5.3-1.44-12.93-2.78-19.45-3.4-4.06-.39-8.02-.59-11.78-.59h0Z"/>
      </g>
      <rect class="cls-2" x="299.51" y="148.95" width="11.16" height="52.97" rx="5.14" ry="5.14" transform="translate(591.95 379.32) rotate(-174.5)"/>
      <path class="cls-6" d="M310.18,278.53c-1.56-.82-3.3-1.36-5.17-1.54-1.74-.17-3.43,0-5.03.43l4.24,9.51,5.96-8.4Z"/>
    </g>
  </g>
</svg>